<?xml version="1.0" encoding="UTF-8"?>
<svg version="1.1" xmlns="http://www.w3.org/2000/svg" width="1376" height="768">
<path d="M0 0 C0.71976013 0.27934891 1.43952026 0.55869781 2.18109131 0.84651184 C4.57333961 1.77724783 6.9603483 2.72073474 9.34765625 3.6640625 C11.07166453 4.33725926 12.79603985 5.00951668 14.52075195 5.6809082 C18.22198936 7.12311168 21.92124433 8.57024779 25.61914062 10.02099609 C34.41742756 13.47050622 43.23152606 16.87927725 52.04373169 20.29302979 C55.13168123 21.48974871 58.21910638 22.68781143 61.30639648 23.88623047 C77.40416377 30.1337578 93.51848393 36.33764625 109.63800049 42.52880859 C128.56449854 49.79876512 147.47198616 57.11700816 166.36914062 64.46289062 C167.36090805 64.84814407 168.35267548 65.23339752 169.37449646 65.63032532 C171.22554162 66.34940981 173.07635514 67.06909097 174.92689514 67.78947449 C175.74194016 68.10604507 176.55698517 68.42261566 177.39672852 68.7487793 C178.10370377 69.02376755 178.81067902 69.2987558 179.53907776 69.58207703 C181.14852321 70.19020467 182.77794287 70.74499137 184.41015625 71.2890625 C184.48037549 97.61100776 184.53320758 123.9329389 184.56559277 150.25495911 C184.58103241 162.47794738 184.60206625 174.70087731 184.63647461 186.92382812 C184.66646603 197.58286041 184.68575232 208.24185042 184.69242173 218.90092373 C184.69631752 224.53980687 184.70541222 230.17856911 184.72734642 235.81741333 C184.74786574 241.13613517 184.75395913 246.45468747 184.74947929 251.77344513 C184.75029764 253.71470311 184.7561705 255.65596738 184.76777267 257.59719086 C184.8516828 272.37441638 184.24741725 286.96342818 177.72265625 300.5390625 C177.37307861 301.29155273 177.02350098 302.04404297 176.66333008 302.81933594 C173.51461596 309.41744837 169.78974175 315.43126861 165.41015625 321.2890625 C165.01489746 321.82418457 164.61963867 322.35930664 164.21240234 322.91064453 C155.44086727 334.71599477 145.64576841 346.27939754 134.30859375 355.703125 C132.06485924 357.5775205 129.93421892 359.55691732 127.78515625 361.5390625 C122.12875895 366.64108089 116.16694634 371.30328564 110.13769531 375.95117188 C108.56087827 377.17233601 106.99653844 378.40956796 105.43359375 379.6484375 C87.95484571 393.39162198 69.29999958 405.59153845 50.41015625 417.2890625 C49.70955078 417.72299316 49.00894531 418.15692383 48.28710938 418.60400391 C34.94521522 426.82439673 21.19249526 434.33034251 7.34765625 441.6640625 C6.58678711 442.06874756 5.82591797 442.47343262 5.04199219 442.89038086 C2.84251268 444.04672132 0.62985339 445.17209164 -1.58984375 446.2890625 C-2.35280762 446.68899414 -3.11577148 447.08892578 -3.90185547 447.50097656 C-8.90012658 449.96787543 -12.03435584 450.9106977 -17.58984375 449.2890625 C-20.78614197 447.97518366 -23.83850692 446.44746033 -26.90234375 444.8515625 C-27.77826172 444.40345215 -28.65417969 443.9553418 -29.55664062 443.49365234 C-58.10132527 428.78398158 -85.33869738 411.76209143 -111.58984375 393.2890625 C-112.66830566 392.53157715 -112.66830566 392.53157715 -113.76855469 391.75878906 C-127.62821449 381.98787922 -140.97327395 371.63040912 -153.58984375 360.2890625 C-154.62818359 359.38800781 -154.62818359 359.38800781 -155.6875 358.46875 C-180.19348834 336.94930114 -206.4265119 309.16944488 -209.8176775 274.99293065 C-210.16587577 268.89098982 -210.09204608 262.78511362 -210.04394531 256.67602539 C-210.0428146 254.64428225 -210.04345506 252.61253748 -210.04571533 250.58079529 C-210.04685467 245.11063731 -210.02347268 239.64083607 -209.9954195 234.17076039 C-209.97027474 228.43729962 -209.96805359 222.70382907 -209.96331787 216.97032166 C-209.95092633 206.13345704 -209.91815675 195.29675542 -209.87791991 184.45996231 C-209.83308282 172.11404411 -209.81118522 159.76811779 -209.79113817 147.42213833 C-209.7494205 122.04435631 -209.67914327 96.66671857 -209.58984375 71.2890625 C-203.96420986 69.09171348 -198.33839028 66.89484077 -192.71240711 64.69838619 C-190.80335202 63.95299296 -188.89434543 63.20747549 -186.98539066 62.46182537 C-174.6990215 57.66280536 -162.40675848 52.88379509 -150.06890869 48.21838379 C-145.78355694 46.59738058 -141.50119473 44.96850825 -137.21875 43.33984375 C-136.34116028 43.00612762 -135.46357056 42.6724115 -134.55938721 42.32858276 C-122.96177125 37.91393148 -111.39100724 33.42977834 -99.81835938 28.95019531 C-89.47738203 24.94792384 -79.13231839 20.95657956 -68.78125 16.98046875 C-67.6143866 16.53216705 -66.44752319 16.08386536 -65.24530029 15.62197876 C-59.55093031 13.43446586 -53.85609268 11.24818071 -48.16064453 9.06347656 C-47.11044128 8.65996979 -46.06023804 8.25646301 -44.97821045 7.84072876 C-42.94161513 7.0588392 -40.90424018 6.27897684 -38.86602783 5.50131226 C-34.55590465 3.85044076 -30.26907152 2.17640778 -26.03369141 0.34130859 C-25.35462234 0.05144577 -24.67555328 -0.23841705 -23.97590637 -0.5370636 C-22.24450994 -1.28371639 -20.52268132 -2.05245682 -18.80200195 -2.82348633 C-12.1337734 -4.66577642 -6.21696959 -2.48809533 0 0 Z " fill="#8370EA" transform="translate(700.58984375,161.7109375)"/>
<path d="M0 0 C0.68521225 0.26827103 1.3704245 0.53654205 2.07640076 0.8129425 C3.56397062 1.39580596 5.05081751 1.98051723 6.53701782 2.56686401 C9.75746042 3.83720161 12.98152605 5.09821862 16.20545959 6.35966492 C17.90300296 7.02388355 19.60037784 7.68853296 21.29759216 8.35359192 C30.29046165 11.87561887 39.30410373 15.34294482 48.3203125 18.8046875 C49.95574908 19.43313502 51.59116564 20.06163466 53.2265625 20.69018555 C59.77162618 23.2053643 66.31739349 25.71870775 72.86376953 28.23046875 C77.70382259 30.08757341 82.54352188 31.94559692 87.3828125 33.8046875 C88.17073181 34.10737549 88.95865112 34.41006348 89.77044678 34.72192383 C109.21256676 42.19411344 128.61171585 49.77649398 148.0078125 57.3671875 C146.5611223 60.79634408 144.80072732 62.63134774 141.96875 65.015625 C136.99738913 69.3756211 132.35715369 73.99214625 127.734375 78.71875 C126.63002106 79.84225861 126.63002106 79.84225861 125.50335693 80.98846436 C122.42353094 84.12190161 119.34590461 87.25713126 116.28662109 90.41064453 C114.03045124 92.73301933 111.75901586 95.03948344 109.484375 97.34375 C108.79268219 98.06438629 108.10098938 98.78502258 107.38833618 99.52749634 C106.74020966 100.17922821 106.09208313 100.83096008 105.42431641 101.50244141 C104.85935455 102.08152252 104.2943927 102.66060364 103.71231079 103.25723267 C102.0078125 104.3671875 102.0078125 104.3671875 99.94711304 104.21029663 C96.75834146 102.82398111 94.97882558 100.03769108 92.8828125 97.3671875 C85.38439306 88.18385723 76.96413498 80.81442849 67.0078125 74.3671875 C65.93144531 73.65691406 64.85507812 72.94664062 63.74609375 72.21484375 C34.13389639 53.22050058 -3.90409071 46.30157311 -38.50732422 52.75048828 C-71.25495042 59.96994227 -100.49208285 77.74236022 -120.9921875 104.3671875 C-125.01256618 102.72424429 -127.88408791 99.93235262 -130.9921875 96.9921875 C-131.60795654 96.41509033 -132.22372559 95.83799316 -132.8581543 95.2434082 C-141.63502157 86.92734447 -150.11288046 78.2947383 -158.61914062 69.70361328 C-159.22183273 69.09662094 -159.82452484 68.4896286 -160.44548035 67.86424255 C-161.59243234 66.70888798 -162.7373077 65.55146721 -163.87983704 64.39173889 C-166.66340952 61.52158627 -166.66340952 61.52158627 -169.9921875 59.3671875 C-169.9921875 58.7071875 -169.9921875 58.0471875 -169.9921875 57.3671875 C-154.44511275 51.09262301 -138.82462042 45.01803016 -123.1796875 38.9921875 C-121.93201574 38.51121533 -120.68436584 38.03018644 -119.43673706 37.54910278 C-100.39946873 30.20839025 -81.35815382 22.87783214 -62.29418945 15.60668945 C-54.2519444 12.53835046 -46.21287561 9.46492893 -38.20292664 6.31303406 C-35.00309804 5.05428491 -31.79998813 3.80401358 -28.59664917 2.55422974 C-27.13072239 1.97919635 -25.66656422 1.39962998 -24.20437622 0.81515503 C-22.22902265 0.02561088 -20.24827411 -0.74853066 -18.265625 -1.51953125 C-17.16653809 -1.95483154 -16.06745117 -2.39013184 -14.93505859 -2.83862305 C-9.48084504 -4.31054579 -5.06761859 -2.01369085 0 0 Z " fill="#09090D" transform="translate(698.9921875,188.6328125)"/>
<path d="M0 0 C3.16075827 1.58037913 3.47796741 4.82004334 4.5625 8 C17.43745067 43.75746965 43.82724761 70.80468288 77.9921875 86.94091797 C87.35608723 91.1857266 96.99848168 93.76842391 107 96 C107.60948486 96.17805176 108.21896973 96.35610352 108.84692383 96.53955078 C116.2608445 98.5563679 123.87373103 98.37213512 131.49829102 98.37060547 C133.90129921 98.37493478 136.30239883 98.41121026 138.70507812 98.44921875 C153.67287509 98.55900511 167.4626204 95.48690512 181.625 90.75 C182.45 90.481875 183.275 90.21375 184.125 89.9375 C186.08577209 89.29910909 188.04330659 88.65078495 190 88 C188.55758209 92.01780289 186.62050268 95.32054795 184.25390625 98.8671875 C183.88701187 99.41889114 183.52011749 99.97059479 183.1421051 100.53901672 C181.95413711 102.32124238 180.75887537 104.09840914 179.5625 105.875 C179.15505554 106.48292389 178.74761108 107.09084778 178.32781982 107.7171936 C172.52229999 116.37776771 166.61383797 124.93997007 160.31835938 133.25341797 C158.86212934 135.18265309 157.42259692 137.12371295 155.984375 139.06640625 C150.73249885 146.14308683 145.39628576 153.10114542 139.7421875 159.86328125 C137.8751405 162.08341423 137.8751405 162.08341423 136 165 C100.74032096 154.88403901 63.34990296 125.92107506 34.64453125 103.29589844 C32.90765086 101.92722844 31.15798711 100.57615351 29.40625 99.2265625 C0.35911877 76.75036339 0.35911877 76.75036339 -10.328125 63.9765625 C-11.48818883 62.60508517 -12.68981651 61.2681215 -13.921875 59.9609375 C-19.66014111 53.84456858 -23.80089222 47.22559237 -28 40 C-25.86795451 36.20591266 -23.43181198 33.07757915 -20.5625 29.8125 C-12.71778644 20.66649559 -6.08957515 10.3832417 0 0 Z " fill="#08090E" transform="translate(553,419)"/>
<path d="M0 0 C0.14054676 21.75843644 0.24615487 43.51679736 0.31087303 65.27559662 C0.34172984 75.38001232 0.38375289 85.48414496 0.45263672 95.58837891 C0.51269029 104.40159289 0.55120847 113.21460173 0.56453097 122.02801466 C0.57231108 126.68900438 0.59042258 131.34940756 0.63438034 136.01020813 C0.67553314 140.4098318 0.68758437 144.80863527 0.67864609 149.20843315 C0.68027789 150.81109026 0.69195681 152.41377886 0.71523285 154.01626778 C1.1020392 182.05550757 -15.73697964 202.01143628 -34.37207031 221.34033203 C-38.07216175 225.11256083 -41.96200647 228.59541722 -46 232 C-46.58555664 232.49790039 -47.17111328 232.99580078 -47.77441406 233.50878906 C-68.66191018 251.21979753 -91.17075556 266.90698151 -114 282 C-114.66 281.67 -115.32 281.34 -116 281 C-114.87078125 279.48599609 -114.87078125 279.48599609 -113.71875 277.94140625 C-104.87576074 265.95807463 -96.80283191 253.55641352 -88.86767578 240.95800781 C-87.19288352 238.30548715 -85.5048337 235.66227223 -83.80859375 233.0234375 C-76.47685405 221.5866465 -69.61455837 209.90093999 -62.82177734 198.13769531 C-60.95553722 194.92342059 -59.06868503 191.7220743 -57.17578125 188.5234375 C-56.54978027 187.46213623 -55.9237793 186.40083496 -55.27880859 185.30737305 C-54.09174785 183.29604326 -52.90094566 181.28691464 -51.70556641 179.28051758 C-46.46283174 170.36724692 -42.13473267 161.1937716 -38.875 151.375 C-38.62274658 150.61864258 -38.37049316 149.86228516 -38.1105957 149.08300781 C-35.57935223 141.18402237 -34.21081956 133.18827617 -33 125 C-32.72542969 123.63101563 -32.72542969 123.63101563 -32.4453125 122.234375 C-29.11861004 98.07200978 -32.87829285 69.12517462 -45.42578125 47.85498047 C-46 46 -46 46 -45.25048828 43.92553711 C-43.45002732 41.15313656 -41.22837347 39.004819 -38.875 36.6875 C-37.96492187 35.78386719 -37.05484375 34.88023437 -36.1171875 33.94921875 C-33.94665782 31.85536635 -31.70446077 29.87873788 -29.41015625 27.921875 C-23.49022625 22.78625131 -18.06602545 17.13505578 -12.5625 11.5625 C-10.39997754 9.37346289 -8.23419963 7.18772216 -6.06640625 5.00390625 C-5.32433678 4.24938927 -5.32433678 4.24938927 -4.567276 3.47962952 C-1.11274778 0 -1.11274778 0 0 0 Z " fill="#08090D" transform="translate(859,271)"/>
<path d="M0 0 C1.58869934 1.14045715 1.58869934 1.14045715 3.13208008 2.58520508 C3.71560745 3.12699905 4.29913483 3.66879303 4.90034485 4.227005 C5.82559212 5.1143055 5.82559212 5.1143055 6.76953125 6.01953125 C7.40992844 6.63334152 8.05032562 7.24715179 8.71012878 7.87956238 C10.0602338 9.18382461 11.40569877 10.49290463 12.74682617 11.80639648 C14.1187839 13.13878942 15.50490566 14.45675798 16.9050293 15.75952148 C28.44884097 26.50260634 28.44884097 26.50260634 29.73632812 32.33642578 C29.51879161 35.44416034 28.95046946 38.03956157 28 41 C27.83701416 41.74805908 27.67402832 42.49611816 27.50610352 43.2668457 C27.05988156 45.3044076 26.49917075 47.26033189 25.875 49.25 C25.65908203 49.95455322 25.44316406 50.65910645 25.22070312 51.38500977 C23.54616887 56.66131709 21.624705 61.82656579 19.5 66.9375 C19.22784668 67.61780273 18.95569336 68.29810547 18.67529297 68.99902344 C16.63552398 73.66785463 16.63552398 73.66785463 13.89648438 75.09936523 C10.24826894 76.23374375 6.57535509 76.89785731 2.8125 77.5078125 C2.03237549 77.63815887 1.25225098 77.76850525 0.44848633 77.90280151 C-1.19502275 78.17605524 -2.8389977 78.44651991 -4.48339844 78.71435547 C-6.99281504 79.1238276 -9.50033885 79.54365502 -12.0078125 79.96484375 C-13.60927287 80.22978476 -15.21083229 80.49412784 -16.8125 80.7578125 C-17.55846436 80.88278107 -18.30442871 81.00774963 -19.07299805 81.13650513 C-27.10868533 82.43353639 -27.10868533 82.43353639 -30 82 C-31.74169922 80.32275391 -31.74169922 80.32275391 -33.3046875 77.9765625 C-34.18060547 76.69072266 -34.18060547 76.69072266 -35.07421875 75.37890625 C-35.66847656 74.47011719 -36.26273438 73.56132812 -36.875 72.625 C-37.46152344 71.75488281 -38.04804687 70.88476562 -38.65234375 69.98828125 C-39.84384406 68.22067091 -41.01921628 66.44208845 -42.17871094 64.65332031 C-43.95855956 61.96126244 -43.95855956 61.96126244 -46.11035156 59.52636719 C-51.04216799 53.57532458 -51.04216799 53.57532458 -50.92504883 49.19995117 C-50.15993557 46.02613829 -49.13745521 43.05979649 -48 40 C-47.28706223 37.67758623 -46.58019227 35.35330246 -45.87890625 33.02734375 C-45.11154396 30.66250835 -44.33936775 28.29922985 -43.5625 25.9375 C-43.18029297 24.72900391 -42.79808594 23.52050781 -42.40429688 22.27539062 C-42.02466797 21.12103516 -41.64503906 19.96667969 -41.25390625 18.77734375 C-40.74839233 17.21874634 -40.74839233 17.21874634 -40.23266602 15.62866211 C-38.03606032 10.94439721 -34.64885351 9.6940871 -29.92297363 7.95733643 C-29.27807983 7.72907166 -28.63318604 7.50080688 -27.96875 7.265625 C-27.29581909 7.02334167 -26.62288818 6.78105835 -25.92956543 6.53143311 C-24.51209916 6.02372754 -23.09332375 5.51966386 -21.67333984 5.01904297 C-19.50259761 4.25091917 -17.33927062 3.46406739 -15.17578125 2.67578125 C-13.79468076 2.18374368 -12.41318289 1.69281981 -11.03125 1.203125 C-10.3863562 0.96676331 -9.7414624 0.73040161 -9.07702637 0.48687744 C-5.59797181 -0.71945168 -3.47152761 -1.24445675 0 0 Z " fill="#09090D" transform="translate(775,361)"/>
<path d="M0 0 C0.83700439 0.26176025 0.83700439 0.26176025 1.69091797 0.52880859 C6.70506411 2.06766407 11.7129122 3.40560692 16.8203125 4.6015625 C35.4039376 9.47360808 35.4039376 9.47360808 40.00292969 15.72070312 C42.90167812 21.83661576 44.25665484 28.19822446 45.3671875 34.84277344 C46.24189371 39.20685548 47.7397348 43.27147174 49.31054688 47.42822266 C50.04620149 50.17233942 50.01144289 51.38660644 49 54 C46.94738742 57.48100599 44.61036655 60.76272618 42.30664062 64.08154297 C40.84988143 66.22040952 39.449383 68.39161401 38.046875 70.56640625 C37.01134671 72.12822121 35.97489291 73.68942294 34.9375 75.25 C34.45563232 76.0133667 33.97376465 76.7767334 33.47729492 77.56323242 C29.9218574 82.81048109 29.9218574 82.81048109 25.921875 83.6328125 C20.3598587 82.73535569 14.83352255 81.74877589 9.3125 80.625 C7.0797271 80.17818564 4.84665465 79.73286551 2.61328125 79.2890625 C1.51975342 79.06500732 0.42622559 78.84095215 -0.70043945 78.61010742 C-2.91068754 78.20142004 -5.13567688 77.86605681 -7.36791992 77.6027832 C-15.39681624 76.6348812 -15.39681624 76.6348812 -18.52734375 73.33984375 C-18.99269531 72.21707031 -19.45804688 71.09429687 -19.9375 69.9375 C-20.20071045 69.32551758 -20.4639209 68.71353516 -20.73510742 68.08300781 C-31.9194829 41.00683372 -31.9194829 41.00683372 -29 30 C-27.77319336 28.16601562 -27.77319336 28.16601562 -26.15234375 26.40625 C-25.52183105 25.72046875 -24.89131836 25.0346875 -24.24169922 24.328125 C-19.74306441 19.65605121 -15.16806894 15.06610327 -10.5625 10.5 C-9.5342702 9.47679861 -8.50627374 8.45336267 -7.47851562 7.4296875 C-4.98835662 4.95042001 -2.49507167 2.47432462 0 0 Z " fill="#08090D" transform="translate(602,360)"/>
<path d="M0 0 C2.87744609 0.01799164 5.73496776 -0.08098995 8.61010742 -0.18896484 C22.75398686 -0.39089809 22.75398686 -0.39089809 27.41601562 4.08325195 C30.10696901 7.26501435 32.0705241 10.75064193 34.0769043 14.39306641 C35.17119195 15.95142688 36.28406274 17.49710625 37.42456055 19.02197266 C38.3331273 20.33066558 39.23824396 21.64176248 40.1394043 22.95556641 C40.61055664 23.62652344 41.08170898 24.29748047 41.56713867 24.98876953 C42.2390625 25.96426758 42.2390625 25.96426758 42.92456055 26.95947266 C43.31651611 27.52609619 43.70847168 28.09271973 44.11230469 28.67651367 C45.21120273 30.63205712 45.71418024 32.17601025 46.0769043 34.39306641 C45.54986572 36.26528931 45.54986572 36.26528931 44.62084961 38.21191406 C44.2758844 38.94592438 43.93091919 39.67993469 43.57550049 40.43618774 C43.189245 41.21859833 42.8029895 42.00100891 42.4050293 42.80712891 C41.80945221 44.02340469 41.80945221 44.02340469 41.20184326 45.26425171 C40.35454683 46.97734297 39.50003766 48.68688282 38.63891602 50.39306641 C37.33659848 52.99867083 36.09196299 55.62713491 34.84643555 58.26025391 C28.96569016 70.24198218 28.96569016 70.24198218 24.4777832 72.97705078 C21.54242289 73.58299109 19.06671324 73.57722842 16.0769043 73.39306641 C13.78253698 73.47907172 11.48826869 73.56774821 9.1940918 73.65869141 C6.78002937 73.66393367 4.3659225 73.65859064 1.9519043 73.64306641 C0.13625977 73.65466797 0.13625977 73.65466797 -1.71606445 73.66650391 C-16.80783181 73.63366002 -16.80783181 73.63366002 -20.9230957 71.39306641 C-23.2334205 68.63941519 -24.53753446 65.62692036 -25.9230957 62.33056641 C-26.7483612 60.51416034 -27.57654452 58.69907745 -28.4074707 56.88525391 C-28.81803711 55.9684082 -29.22860352 55.0515625 -29.65161133 54.10693359 C-30.8777666 51.48981723 -32.20834306 48.98098127 -33.6262207 46.46337891 C-34.05418945 45.70162354 -34.4821582 44.93986816 -34.9230957 44.1550293 C-35.73980154 42.71797795 -36.56750855 41.2871084 -37.4074707 39.86352539 C-38.5012207 37.89697266 -38.5012207 37.89697266 -39.9230957 34.39306641 C-38.86956851 30.89097022 -37.19098716 28.06415939 -35.13012695 25.06494141 C-34.58163086 24.26443359 -34.03313477 23.46392578 -33.46801758 22.63916016 C-32.89631836 21.81544922 -32.32461914 20.99173828 -31.7355957 20.14306641 C-31.18323242 19.33482422 -30.63086914 18.52658203 -30.06176758 17.69384766 C-28.9337451 16.05618436 -27.78126772 14.43511845 -26.60595703 12.83105469 C-24.869448 10.44469617 -24.869448 10.44469617 -23.66796875 7.82617188 C-18.6059364 -1.25138462 -9.27152915 -0.10581594 0 0 Z " fill="#09090E" transform="translate(684.923095703125,421.60693359375)"/>
<path d="M0 0 C3.41651111 1.78632099 6.79821099 3.58182393 10.09375 5.58203125 C11.07396118 6.17431519 11.07396118 6.17431519 12.07397461 6.77856445 C18.13309628 10.52133363 23.55485697 14.82469568 28.90625 19.51953125 C29.58042969 20.00679688 30.25460937 20.4940625 30.94921875 20.99609375 C32.65625 22.33203125 32.65625 22.33203125 34.90625 25.51953125 C34.95776367 27.98779297 34.95776367 27.98779297 34.63671875 30.88671875 C34.46873779 32.48978882 34.46873779 32.48978882 34.29736328 34.12524414 C34.1682959 35.24535889 34.03922852 36.36547363 33.90625 37.51953125 C33.79394043 38.60935303 33.68163086 39.6991748 33.56591797 40.82202148 C33.21972031 44.16112989 32.84713424 47.49642867 32.46875 50.83203125 C32.34693359 51.95931641 32.22511719 53.08660156 32.09960938 54.24804688 C31.97521484 55.34439453 31.85082031 56.44074219 31.72265625 57.5703125 C31.61381104 58.54653564 31.50496582 59.52275879 31.39282227 60.52856445 C31.23225342 61.5155835 31.07168457 62.50260254 30.90625 63.51953125 C30.71844971 64.72754395 30.53064941 65.93555664 30.3371582 67.18017578 C28.90625 70.51953125 28.90625 70.51953125 25.52978516 72.44750977 C24.09530992 72.9610348 22.64928274 73.44302813 21.1953125 73.8984375 C20.43076752 74.15962875 19.66622253 74.42082001 18.87850952 74.68992615 C17.2639855 75.23489566 15.64476699 75.76612552 14.02148438 76.28442383 C11.53589025 77.080545 9.06933797 77.92192636 6.6015625 78.77148438 C5.02955722 79.2957097 3.4566655 79.81728586 1.8828125 80.3359375 C1.14414948 80.58678604 0.40548645 80.83763458 -0.3555603 81.09608459 C-5.48689435 82.70658434 -5.48689435 82.70658434 -8.3503418 81.82397461 C-9.21332886 81.17827515 -9.21332886 81.17827515 -10.09375 80.51953125 C-11.03432251 79.89498047 -11.03432251 79.89498047 -11.99389648 79.2578125 C-12.96951538 78.55205078 -12.96951538 78.55205078 -13.96484375 77.83203125 C-15.07569336 77.02958984 -15.07569336 77.02958984 -16.20898438 76.2109375 C-16.97533203 75.65277344 -17.74167969 75.09460938 -18.53125 74.51953125 C-19.26279297 73.99230469 -19.99433594 73.46507812 -20.74804688 72.921875 C-22.31411339 71.78657742 -23.86451308 70.6294493 -25.40112305 69.45458984 C-28.15405464 67.40500838 -28.15405464 67.40500838 -31.56176758 65.54150391 C-40.17716699 60.37004104 -40.17716699 60.37004104 -41.76028442 55.44665527 C-42.70266919 49.60257545 -42.28148668 43.77305776 -41.90625 37.89453125 C-41.84093924 36.10958663 -41.78164128 34.32441133 -41.72851562 32.5390625 C-41.58621709 28.19345846 -41.36262433 23.85906745 -41.09375 19.51953125 C-39.94261719 18.91367187 -38.79148437 18.3078125 -37.60546875 17.68359375 C-36.84516357 17.28301758 -36.0848584 16.88244141 -35.30151367 16.46972656 C-33.60643972 15.57842932 -31.90995992 14.68980112 -30.2121582 13.80371094 C-25.70937487 11.44880463 -21.23882857 9.05460638 -16.8125 6.55859375 C-15.54660034 5.85742432 -15.54660034 5.85742432 -14.25512695 5.14208984 C-12.63262177 4.24189009 -11.01870628 3.32599246 -9.41479492 2.39306641 C-3.93892955 -0.6117277 -3.93892955 -0.6117277 0 0 Z " fill="#09090D" transform="translate(738.09375,272.48046875)"/>
<path d="M0 0 C1.26091698 0.63850689 2.51723034 1.28616194 3.76953125 1.94140625 C4.445 2.286875 5.12046875 2.63234375 5.81640625 2.98828125 C8.07730635 4.1495058 10.33030148 5.32500226 12.58203125 6.50390625 C13.43877441 6.95137207 14.29551758 7.39883789 15.17822266 7.85986328 C20.65532558 10.72396295 26.12269524 13.60609356 31.58203125 16.50390625 C34.42014077 48.95538415 34.42014077 48.95538415 30.04101562 57.51660156 C26.13986694 62.01391985 21.31182787 64.70987223 15.99853516 67.27294922 C12.22711443 69.19409524 8.99725182 71.75463486 5.64453125 74.31640625 C2.69567967 76.46510453 0.08181423 78.33731192 -3.41796875 79.50390625 C-6.11949748 78.76149856 -8.69684418 77.94487576 -11.33203125 77.01171875 C-12.10227631 76.74632294 -12.87252136 76.48092712 -13.66610718 76.20748901 C-15.29319732 75.64500068 -16.91878977 75.07816402 -18.54296875 74.50732422 C-21.03721213 73.63092894 -23.53563366 72.76745898 -26.03515625 71.90625 C-27.61354097 71.35882118 -29.19167493 70.81066872 -30.76953125 70.26171875 C-31.89604599 69.87102707 -31.89604599 69.87102707 -33.0453186 69.47244263 C-38.30069977 67.62117523 -38.30069977 67.62117523 -39.41796875 66.50390625 C-39.7781549 64.37078704 -40.07906134 62.22761522 -40.35546875 60.08203125 C-40.44046631 59.42620056 -40.52546387 58.77036987 -40.61303711 58.09466553 C-40.79325055 56.69602553 -40.97132506 55.29710857 -41.14746094 53.89794922 C-41.41169955 51.80359588 -41.68376851 49.71038006 -41.95703125 47.6171875 C-42.47804386 43.58302014 -42.95373437 39.54502025 -43.41796875 35.50390625 C-43.5682251 34.26020264 -43.71848145 33.01649902 -43.87329102 31.73510742 C-43.99244873 30.58502197 -44.11160645 29.43493652 -44.234375 28.25 C-44.34467041 27.2386499 -44.45496582 26.2272998 -44.56860352 25.18530273 C-44.38576321 21.93062681 -43.52295465 20.69960306 -41.35546875 18.31640625 C-39.75211456 16.99238206 -38.09942052 15.72722333 -36.41796875 14.50390625 C-35.35230537 13.68432035 -34.2872351 12.86396287 -33.22265625 12.04296875 C-10.92666731 -4.78275838 -10.92666731 -4.78275838 0 0 Z " fill="#09090E" transform="translate(647.41796875,275.49609375)"/>
<path d="M0 0 C5.0510166 4.3294428 9.75702691 8.67048342 14.37304688 13.41210938 C17.07227432 16.15446695 19.83334029 18.75117059 22.75390625 21.2578125 C27.74543741 25.57492493 32.35891904 30.25007952 37 34.9375 C37.87011719 35.81212891 38.74023438 36.68675781 39.63671875 37.58789062 C41.76013549 39.72297449 43.88116378 41.86037205 46 44 C44.56799707 48.37743341 42.92870837 52.57425261 41.125 56.8125 C37.13521833 66.55682106 34.99201277 76.59926657 33.078125 86.92578125 C28.29761031 112.56965098 18.31826191 136.1216472 1 156 C0.67 156 0.34 156 0 156 C0 104.52 0 53.04 0 0 Z " fill="#08080D" transform="translate(517,271)"/>
<path d="M0 0 C2.76230427 0.91263222 4.58791535 2.03838326 6.90527344 3.7890625 C7.71029297 4.39041016 8.5153125 4.99175781 9.34472656 5.61132812 C10.58706055 6.55975586 10.58706055 6.55975586 11.85449219 7.52734375 C12.67111328 8.14029297 13.48773437 8.75324219 14.32910156 9.38476562 C16.73914028 11.19565527 19.14057355 13.01754696 21.54199219 14.83984375 C24.20637419 16.84289683 26.87382416 18.84183744 29.54199219 20.83984375 C27.46172003 28.8506376 25.00828959 36.68974064 22.35449219 44.52734375 C21.09636719 48.26046875 19.83824219 51.99359375 18.54199219 55.83984375 C6.00199219 55.83984375 -6.53800781 55.83984375 -19.45800781 55.83984375 C-21.29363281 50.45671875 -23.12925781 45.07359375 -25.02050781 39.52734375 C-25.60388916 37.83182373 -26.18727051 36.13630371 -26.78833008 34.3894043 C-27.24273971 33.04369825 -27.69648029 31.69776601 -28.14941406 30.3515625 C-28.39203979 29.6543811 -28.63466553 28.95719971 -28.88464355 28.2388916 C-30.57207961 23.18205915 -30.57207961 23.18205915 -29.45800781 19.83984375 C-27.72729492 18.30932617 -27.72729492 18.30932617 -25.48535156 16.6953125 C-24.66744141 16.10041016 -23.84953125 15.50550781 -23.00683594 14.89257812 C-22.14509766 14.27705078 -21.28335938 13.66152344 -20.39550781 13.02734375 C-18.71691131 11.81279168 -17.03852392 10.59795055 -15.36035156 9.3828125 C-14.53647949 8.7954834 -13.71260742 8.2081543 -12.86376953 7.60302734 C-11.28821031 6.44829944 -9.74079247 5.25391635 -8.22802734 4.01806641 C-7.54208496 3.46038574 -6.85614258 2.90270508 -6.14941406 2.328125 C-5.55459229 1.82450439 -4.95977051 1.32088379 -4.34692383 0.80200195 C-2.45800781 -0.16015625 -2.45800781 -0.16015625 0 0 Z " fill="#08090E" transform="translate(688.4580078125,348.16015625)"/>
<path d="M0 0 C0.66 0.33 1.32 0.66 2 1 C1.01 1.33 0.02 1.66 -1 2 C-1.00958502 28.10532795 -0.98474542 54.21043092 -0.9197216 80.31568432 C-0.89031422 92.43877316 -0.87186995 104.56168781 -0.87988281 116.68481445 C-0.88684411 127.2601389 -0.87257504 137.83519338 -0.83356392 148.41045171 C-0.81365846 154.0020667 -0.80387338 159.5932587 -0.81957626 165.18489647 C-0.83406805 170.46531419 -0.81983098 175.74493007 -0.78504753 181.02524567 C-0.77718353 182.94664147 -0.77915794 184.86811158 -0.79260826 186.78947639 C-0.93913435 209.68723011 5.45784291 230.37953399 19 249 C19.75796875 250.04607422 19.75796875 250.04607422 20.53125 251.11328125 C22.88003842 254.29493088 25.29716292 257.37599518 27.875 260.375 C30 263 30 263 30 265 C30.66 265 31.32 265 32 265 C32 265.66 32 266.32 32 267 C32.66 267 33.32 267 34 267 C34 267.66 34 268.32 34 269 C34.66 269 35.32 269 36 269 C36 269.66 36 270.32 36 271 C36.66 271 37.32 271 38 271 C39.35386936 272.65002828 40.68678142 274.3174387 42 276 C42.66 276.33 43.32 276.66 44 277 C44 277.66 44 278.32 44 279 C44.66 279 45.32 279 46 279 C46 279.66 46 280.32 46 281 C46.66 281 47.32 281 48 281 C48 281.66 48 282.32 48 283 C48.66 283 49.32 283 50 283 C50 283.66 50 284.32 50 285 C50.556875 285.2475 51.11375 285.495 51.6875 285.75 C54.42410913 287.22924818 56.67650869 288.93467439 59 291 C59 291.66 59 292.32 59 293 C60.65 293.66 62.3 294.32 64 295 C64 295.66 64 296.32 64 297 C64.66 297 65.32 297 66 297 C66 297.66 66 298.32 66 299 C66.58523438 299.103125 67.17046875 299.20625 67.7734375 299.3125 C70.34921416 300.10782753 71.64768389 301.18818612 73.625 303 C76.12374312 305.27217224 76.12374312 305.27217224 79 307 C79 307.66 79 308.32 79 309 C79.99 309 80.98 309 82 309 C82 309.66 82 310.32 82 311 C82.73605469 311.26167969 83.47210937 311.52335937 84.23046875 311.79296875 C87.03175961 313.01384163 88.96386196 314.37605438 91.3125 316.3125 C94.90827515 319.20842629 98.55991119 321.66872121 102.56640625 323.95703125 C103.27603516 324.47330078 103.27603516 324.47330078 104 325 C104 325.66 104 326.32 104 327 C104.7425 327.28875 105.485 327.5775 106.25 327.875 C108.56739797 328.82302644 110.77917115 329.84845911 113 331 C113 331.66 113 332.32 113 333 C113.99 333 114.98 333 116 333 C116 333.66 116 334.32 116 335 C117.98 335.66 119.96 336.32 122 337 C122 337.66 122 338.32 122 339 C122.598125 339.144375 123.19625 339.28875 123.8125 339.4375 C125.56150404 339.8872439 127.28677023 340.42892341 129 341 C129 341.66 129 342.32 129 343 C130.98 343.66 132.96 344.32 135 345 C135 345.66 135 346.32 135 347 C135.99 347 136.98 347 138 347 C138 347.66 138 348.32 138 349 C138.99 349 139.98 349 141 349 C141 349.66 141 350.32 141 351 C141.99 351 142.98 351 144 351 C144 351.66 144 352.32 144 353 C139.07251577 351.29546271 134.84498186 348.60513126 130.4375 345.875 C129.63103027 345.37782471 128.82456055 344.88064941 127.99365234 344.3684082 C121.56450273 340.38665324 115.22206278 336.29918968 109 332 C108.25459961 331.4853418 107.50919922 330.97068359 106.74121094 330.44042969 C96.68480961 323.48072404 86.68303913 316.47393048 77 309 C76.16178711 308.35683838 76.16178711 308.35683838 75.30664062 307.70068359 C68.47609354 302.45114373 61.8100317 297.11544746 55.4765625 291.265625 C53.43353735 289.39661145 51.36162974 287.58190742 49.265625 285.7734375 C25.62683954 265.12878792 1.01904153 237.42620979 -2.22783375 204.70386815 C-2.57603202 198.60192732 -2.50220233 192.49605112 -2.45410156 186.38696289 C-2.45297085 184.35521975 -2.45361131 182.32347498 -2.45587158 180.29173279 C-2.45701092 174.82157481 -2.43362893 169.35177357 -2.40557575 163.88169789 C-2.38043099 158.14823712 -2.37820984 152.41476657 -2.37347412 146.68125916 C-2.36108258 135.84439454 -2.328313 125.00769292 -2.28807616 114.17089981 C-2.24323907 101.82498161 -2.22134147 89.47905529 -2.20129442 77.13307583 C-2.15957675 51.75529381 -2.08929952 26.37765607 -2 1 C-1.34 0.67 -0.68 0.34 0 0 Z " fill="#544EB3" transform="translate(493,232)"/>
<path d="M0 0 C0.99 0 1.98 0 3 0 C3.07017026 26.37375751 3.12302745 52.74750097 3.15543652 79.12133312 C3.17088649 91.36794854 3.19194026 103.61450586 3.22631836 115.86108398 C3.25627795 126.5387653 3.27558858 137.21640453 3.28226548 147.89412671 C3.28616662 153.54465117 3.29529585 159.19505524 3.31719017 164.845541 C3.33765899 170.17164042 3.34381287 175.49757065 3.33932304 180.82370567 C3.34014361 182.77106142 3.34604695 184.71842323 3.35761642 186.66574478 C3.41727733 197.23215433 3.07967635 206.80171099 0 217 C-0.33 217 -0.66 217 -1 217 C-1.09765625 210.84765625 -1.09765625 210.84765625 -1 209 C-0.67 208.67 -0.34 208.34 0 208 C0.09783696 205.31930668 0.12993911 202.66438877 0.12025452 199.98326111 C0.12110894 199.13302779 0.12196337 198.28279448 0.12284368 197.40679651 C0.1245011 194.5354183 0.11897286 191.66409751 0.11352539 188.79272461 C0.11324355 186.7433421 0.11340119 184.69395948 0.1139679 182.64457703 C0.11425599 177.06216088 0.10835736 171.47976602 0.10139394 165.89735484 C0.09516236 160.07037001 0.09455676 154.24338474 0.09336853 148.41639709 C0.09025464 137.37372706 0.08204047 126.33106687 0.07201904 115.28840119 C0.06085971 102.72029921 0.05534791 90.15219677 0.05032361 77.58409107 C0.0398579 51.72272191 0.02225734 25.86136151 0 0 Z " fill="#9B87C0" transform="translate(882,233)"/>
<path d="M0 0 C3.859375 0.796875 3.859375 0.796875 5.125 2.625 C6 5 6 5 6.84765625 8.21875 C8.01039709 12.03411657 9.49845987 15.32736498 11.3125 18.875 C11.77825439 19.7868103 11.77825439 19.7868103 12.25341797 20.71704102 C17.8374123 33.41551624 17.8374123 33.41551624 27 43 C27.72693904 44.97888961 28.39816251 46.97954558 29 49 C29.66 49 30.32 49 31 49 C34 52.46153846 34 52.46153846 34 55 C34.61875 55.2475 35.2375 55.495 35.875 55.75 C38.35068687 57.20628639 38.95125002 58.37812506 40 61 C40.99 61 41.98 61 43 61 C44.71108689 62.62102968 46.37253306 64.29503463 48 66 C51.31033382 68.79064747 51.31033382 68.79064747 55 71 C55 71.66 55 72.32 55 73 C56.98 73.66 58.96 74.32 61 75 C61 75.66 61 76.32 61 77 C61.66 77.33 62.32 77.66 63 78 C62.01 78.495 62.01 78.495 61 79 C33.30422811 60.23165083 11.4946494 34.6378573 2 2 C1.02032924 3.39547958 0.0413114 4.79141752 -0.9375 6.1875 C-1.89849609 7.55648438 -1.89849609 7.55648438 -2.87890625 8.953125 C-4.31593332 11.01736278 -5.74006729 13.09062547 -7.15234375 15.171875 C-11.51073956 21.57542315 -16.02765447 27.65258304 -21.0546875 33.5625 C-22.95289317 35.94097457 -24.49905301 38.35682291 -26 41 C-20.88055134 49.54505504 -15.4866094 57.08996214 -8.578125 64.28125 C-6.7574017 66.20128548 -5.06961266 68.0945909 -3.40234375 70.13671875 C-1.45681509 72.45553583 0.38288618 74.37782419 2.6875 76.3125 C5.80373981 78.96685811 8.85284701 81.67628643 11.875 84.4375 C16.74966929 88.84286883 21.82264966 92.95726048 27 97 C26.01 97.495 26.01 97.495 25 98 C23.3278148 96.88321917 21.66237197 95.75633648 20 94.625 C19.071875 93.99851562 18.14375 93.37203125 17.1875 92.7265625 C16.465625 92.15679687 15.74375 91.58703125 15 91 C15 90.34 15 89.68 15 89 C14.34 89 13.68 89 13 89 C13 88.34 13 87.68 13 87 C12.42765625 86.7421875 11.8553125 86.484375 11.265625 86.21875 C8.78871005 84.88634058 6.8658834 83.34943882 4.75 81.5 C4.04359375 80.8915625 3.3371875 80.283125 2.609375 79.65625 C1 78 1 78 1 76 C-0.32 75.67 -1.64 75.34 -3 75 C-3 74.34 -3 73.68 -3 73 C-3.66 73 -4.32 73 -5 73 C-6.69140625 71.35546875 -6.69140625 71.35546875 -8.5625 69.1875 C-9.18253906 68.47980469 -9.80257812 67.77210938 -10.44140625 67.04296875 C-12 65 -12 65 -13 62 C-13.66 62 -14.32 62 -15 62 C-16.296875 60.50292969 -16.296875 60.50292969 -17.75 58.421875 C-18.53890625 57.29845703 -18.53890625 57.29845703 -19.34375 56.15234375 C-19.8903125 55.35957031 -20.436875 54.56679688 -21 53.75 C-21.5465625 52.97269531 -22.093125 52.19539063 -22.65625 51.39453125 C-29 42.29871324 -29 42.29871324 -29 38 C-28.34 38 -27.68 38 -27 38 C-26.73960937 37.41992188 -26.47921875 36.83984375 -26.2109375 36.2421875 C-24.92034831 33.8525159 -23.46061452 32.1209302 -21.625 30.125 C-18.74701174 26.90877394 -16.34508975 23.63110671 -14 20 C-13.09086542 18.78598948 -12.17342533 17.57817617 -11.25 16.375 C-7.24216592 11.09288021 -3.63800336 5.54010664 0 0 Z " fill="#5C56C9" transform="translate(552,418)"/>
<path d="M0 0 C-8.1746902 8.8597201 -16.69874738 15.7492687 -27 22 C-28.42699219 22.87398438 -28.42699219 22.87398438 -29.8828125 23.765625 C-34.19523263 26.28929209 -34.19523263 26.28929209 -36 27 C-36.66 26.67 -37.32 26.34 -38 26 C-36.37828376 22.72752852 -34.7520638 19.45731555 -33.125 16.1875 C-32.66480469 15.25873047 -32.20460938 14.32996094 -31.73046875 13.37304688 C-31.28574219 12.48037109 -30.84101562 11.58769531 -30.3828125 10.66796875 C-29.97434082 9.84578857 -29.56586914 9.0236084 -29.14501953 8.17651367 C-26.50582004 3.15978371 -26.50582004 3.15978371 -23.70922852 2.27636719 C-22.77522217 2.11813477 -21.84121582 1.95990234 -20.87890625 1.796875 C-19.86119141 1.6215625 -18.84347656 1.44625 -17.79492188 1.265625 C-16.72822266 1.09546875 -15.66152344 0.9253125 -14.5625 0.75 C-13.49966797 0.564375 -12.43683594 0.37875 -11.34179688 0.1875 C-3.41061552 -1.13687184 -3.41061552 -1.13687184 0 0 Z " fill="#0B0A18" transform="translate(774,458)"/>
<path d="M0 0 C1.83014648 -0.01836914 1.83014648 -0.01836914 3.69726562 -0.03710938 C10.77652234 -0.0485214 17.31819974 0.43467147 24.1875 2.1875 C22.49193987 5.57862025 18.67523872 6.59368392 15.375 8.1875 C14.28735352 8.72117187 14.28735352 8.72117187 13.17773438 9.265625 C11.81799335 9.93243304 10.45703441 10.59676735 9.09448242 11.2578125 C7.75211059 11.9122424 6.42524364 12.59896607 5.11108398 13.30834961 C2.08628358 14.69079741 0.38461462 14.08135687 -2.8125 13.1875 C-6.18947345 11.65218054 -9.43460643 9.90576327 -12.6875 8.125 C-13.56664062 7.65255859 -14.44578125 7.18011719 -15.3515625 6.69335938 C-17.50945524 5.53231926 -19.66277708 4.36357732 -21.8125 3.1875 C-21.4825 2.5275 -21.1525 1.8675 -20.8125 1.1875 C-14.01224514 -0.35756514 -6.93566331 0.00362934 0 0 Z " fill="#0D0B1A" transform="translate(686.8125,261.8125)"/>
<path d="M0 0 C3.09868017 0.47672003 6.19170463 0.96213971 9.28125 1.49609375 C12.93752427 2.09274809 12.93752427 2.09274809 16.40625 1.91015625 C20.29617496 1.94257229 22.52694133 2.18453751 26 4 C31.57054383 10.90906181 34.83371818 19.78798566 38 28 C33.25432195 26.63381996 29.34491892 24.57623169 25.25 21.875 C24.63946777 21.47611572 24.02893555 21.07723145 23.39990234 20.66625977 C14.85434009 15.00546945 6.84702136 8.66942896 0 1 C0 0.67 0 0.34 0 0 Z " fill="#090917" transform="translate(602,457)"/>
<path d="M0 0 C0.66 0 1.32 0 2 0 C2.33972801 2.81185594 2.67190212 5.62428236 3 8.4375 C3.09539063 9.22060547 3.19078125 10.00371094 3.2890625 10.81054688 C3.56494352 13.20479997 3.78809504 15.59930459 4 18 C4.14078979 19.17139526 4.14078979 19.17139526 4.28442383 20.36645508 C4.53115775 23.66194087 4.62525217 26.00986574 2.82568359 28.85961914 C1.20309657 30.64659252 -0.49020875 32.23034065 -2.3125 33.8125 C-3.49794231 34.90033276 -4.68159141 35.99012343 -5.86328125 37.08203125 C-6.41709473 37.5817041 -6.9709082 38.08137695 -7.54150391 38.59619141 C-9.25429854 40.24476341 -10.57904164 42.10079029 -12 44 C-12.66 44 -13.32 44 -14 44 C-12.35156618 28.03233512 -7.02651089 14.2757642 0 0 Z " fill="#090815" transform="translate(586,320)"/>
<path d="M0 0 C3.26430489 2.69057858 4.72545704 6.20950212 6.375 10 C6.67736572 10.69335449 6.97973145 11.38670898 7.29125977 12.10107422 C9.62192939 17.66190531 11.39377572 23.29996826 12.9375 29.125 C13.14874512 29.91777344 13.35999023 30.71054687 13.57763672 31.52734375 C14.64310494 35.77835375 15.23292938 39.58140024 15 44 C14.31550781 43.30519531 13.63101563 42.61039062 12.92578125 41.89453125 C10.89002082 39.85302617 8.79973081 37.89002194 6.66796875 35.94921875 C5.50756582 34.86224245 4.34741292 33.77499918 3.1875 32.6875 C2.59001953 32.15705078 1.99253906 31.62660156 1.37695312 31.08007812 C-1.84522924 28.00519553 -2.92224879 26.67998204 -3.4453125 22.10546875 C-3.3308218 20.73372194 -3.18147279 19.36450176 -3 18 C-2.93546631 17.30640381 -2.87093262 16.61280762 -2.80444336 15.89819336 C-2.59871399 13.79985097 -2.3389588 11.71510692 -2.0625 9.625 C-1.97548828 8.91472656 -1.88847656 8.20445312 -1.79882812 7.47265625 C-1.13157685 2.2631537 -1.13157685 2.2631537 0 0 Z " fill="#0C0A15" transform="translate(789,321)"/>
<path d="M0 0 C-2.81481026 2.3263957 -5.09460568 3.48952651 -8.625 4.375 C-14.00148246 5.8769 -20.95607333 7.95607333 -25 12 C-25.09117121 13.5445564 -25.11216248 15.09330254 -25.10559082 16.64053345 C-25.1039241 17.6478867 -25.10225739 18.65523994 -25.10054016 19.69311905 C-25.09378769 20.81097668 -25.08703522 21.9288343 -25.08007812 23.08056641 C-25.07727341 24.25451839 -25.07446869 25.42847038 -25.07157898 26.63799667 C-25.0636096 29.89640762 -25.05158336 33.15477935 -25.03861046 36.4131732 C-25.0157794 42.81350418 -25.01103073 49.21389403 -25.00390625 55.61425781 C-25.00294543 56.35878637 -25.00198462 57.10331493 -25.00099468 57.87040496 C-24.97989079 75.40124248 -25.08858456 92.93066365 -25.21875 110.4609375 C-25.22995168 111.99130495 -25.24114145 113.52167248 -25.25231934 115.0520401 C-25.31425546 123.49263433 -25.37909222 131.93320418 -25.44538307 140.37376523 C-25.50775675 148.32895352 -25.56732237 156.28416227 -25.62675762 164.23937297 C-25.74824936 180.4929383 -25.87293073 196.74647729 -26 213 C-26.33 213 -26.66 213 -27 213 C-27 146.01 -27 79.02 -27 10 C-21.49886427 6.85649387 -16.5186695 4.43537545 -10.6875 2.1875 C-9.87732422 1.86330078 -9.06714844 1.53910156 -8.23242188 1.20507812 C-7.45833984 0.90408203 -6.68425781 0.60308594 -5.88671875 0.29296875 C-5.18764404 0.0199292 -4.48856934 -0.25311035 -3.76831055 -0.53442383 C-2 -1 -2 -1 0 0 Z " fill="#655DE1" transform="translate(519,224)"/>
<path d="M0 0 C1.98 1.65 3.96 3.3 6 5 C3 5 3 5 1 4 C1.33 52.51 1.66 101.02 2 151 C2.66 151.33 3.32 151.66 4 152 C2.02 153.98 2.02 153.98 0 156 C0 104.52 0 53.04 0 0 Z " fill="#01011B" transform="translate(517,271)"/>
<path d="M0 0 C2 3 2 3 2.91796875 6.2578125 C4.02524443 10.08730744 5.49973822 13.32986499 7.3125 16.875 C7.62300293 17.48287354 7.93350586 18.09074707 8.25341797 18.71704102 C13.8374123 31.41551624 13.8374123 31.41551624 23 41 C23.72693904 42.97888961 24.39816251 44.97954558 25 47 C25.66 47 26.32 47 27 47 C30 50.46153846 30 50.46153846 30 53 C30.61875 53.2475 31.2375 53.495 31.875 53.75 C34.35068687 55.20628639 34.95125002 56.37812506 36 59 C36.99 59 37.98 59 39 59 C40.71108689 60.62102968 42.37253306 62.29503463 44 64 C47.31033382 66.79064747 47.31033382 66.79064747 51 69 C51 69.66 51 70.32 51 71 C53.97 71.99 53.97 71.99 57 73 C57 73.66 57 74.32 57 75 C57.99 75.495 57.99 75.495 59 76 C58.01 76.495 58.01 76.495 57 77 C33.82614892 61.29598097 16.72736621 42.30897236 4.4375 17.0625 C4.10274658 16.38928711 3.76799316 15.71607422 3.4230957 15.02246094 C1.11033767 10.06437551 0.31640136 5.44667973 0 0 Z " fill="#635BCE" transform="translate(556,420)"/>
<path d="M0 0 C0.67289063 0.37125 1.34578125 0.7425 2.0390625 1.125 C2.72742188 1.49625 3.41578125 1.8675 4.125 2.25 C4.63289062 2.53875 5.14078125 2.8275 5.6640625 3.125 C5.6640625 3.785 5.6640625 4.445 5.6640625 5.125 C-0.3359375 3.125 -0.3359375 3.125 -3.03613281 1.82299805 C-7.80216956 0.81485222 -10.36304558 2.5505526 -14.5078125 4.83203125 C-15.27144104 5.23201828 -16.03506958 5.63200531 -16.82183838 6.04411316 C-19.25358852 7.32331927 -21.6694578 8.62971561 -24.0859375 9.9375 C-25.72688907 10.80718167 -27.36880737 11.67504191 -29.01171875 12.54101562 C-32.01103651 14.12526168 -35.00454869 15.71941569 -37.99121094 17.32739258 C-39.76248266 18.27935416 -41.53735264 19.22570757 -43.3359375 20.125 C-43.36061509 25.50015933 -43.37878678 30.87528585 -43.39086914 36.25048828 C-43.39590487 38.07992121 -43.40273377 39.90935009 -43.41137695 41.73876953 C-43.42347574 44.36491898 -43.42917333 46.99101532 -43.43359375 49.6171875 C-43.43875504 50.43806854 -43.44391632 51.25894958 -43.44923401 52.10470581 C-43.55945624 56.24711844 -43.55945624 56.24711844 -42.3359375 60.125 C-43.3259375 59.795 -44.3159375 59.465 -45.3359375 59.125 C-46.93465319 55.92756861 -46.52015431 52.45440884 -46.5390625 48.94140625 C-46.54476257 48.1300975 -46.55046265 47.31878876 -46.55633545 46.4828949 C-46.56578736 44.76554673 -46.57232019 43.04818041 -46.57617188 41.33081055 C-46.58588637 38.70133951 -46.61691068 36.07264717 -46.6484375 33.44335938 C-46.65496668 31.77604632 -46.66021748 30.10872766 -46.6640625 28.44140625 C-46.6764093 27.65383438 -46.6887561 26.86626251 -46.70147705 26.05482483 C-46.67926195 20.62088499 -46.67926195 20.62088499 -45.01074219 18.2109375 C-42.23982575 16.41428498 -39.30972684 14.98333453 -36.3359375 13.5625 C-31.59147967 11.26028574 -26.89302245 8.90992834 -22.265625 6.37890625 C-21.42386719 5.92136963 -20.58210937 5.46383301 -19.71484375 4.99243164 C-18.07408572 4.09638194 -16.43841977 3.19092982 -14.80859375 2.27514648 C-9.65787355 -0.51903148 -5.79632222 -2.17119762 0 0 Z " fill="#907FD5" transform="translate(741.3359375,271.875)"/>
<path d="M0 0 C0.33 0 0.66 0 1 0 C1.02687279 1.81242052 1.04633715 3.62495233 1.0625 5.4375 C1.07410156 6.44683594 1.08570313 7.45617187 1.09765625 8.49609375 C1 11 1 11 0 12 C-0.15915679 13.53851559 -0.27706625 15.08137761 -0.375 16.625 C-0.72971592 20.43550885 -1.36034445 23.48111151 -3.05078125 26.9609375 C-4.81355138 30.74762889 -6.16627721 34.70797335 -7.62109375 38.62109375 C-10.39368388 45.41511773 -13.8704139 51.71801481 -17.75 57.9375 C-18.18103027 58.62972656 -18.61206055 59.32195312 -19.05615234 60.03515625 C-22.53643883 65.5072887 -26.41972891 70.39414081 -31 75 C-31 71.63815941 -30.60957842 71.12166518 -28.65625 68.55078125 C-28.15561035 67.87587646 -27.6549707 67.20097168 -27.13916016 66.50561523 C-26.5982373 65.78188721 -26.05731445 65.05815918 -25.5 64.3125 C-12.46154958 46.32082019 -5.27254669 26.66948039 -1 5 C-0.80019531 4.00355469 -0.60039063 3.00710938 -0.39453125 1.98046875 C-0.26433594 1.32691406 -0.13414062 0.67335938 0 0 Z " fill="#5D55C9" transform="translate(550,353)"/>
<path d="M0 0 C0 3 0 3 -1.12304688 4.49053955 C-1.91291992 5.27494415 -1.91291992 5.27494415 -2.71875 6.07519531 C-3.31357178 6.67301819 -3.90839355 7.27084106 -4.52124023 7.88677979 C-5.17423096 8.52742371 -5.82722168 9.16806763 -6.5 9.828125 C-7.169104 10.49535583 -7.83820801 11.16258667 -8.52758789 11.85003662 C-9.94996382 13.26567828 -11.37593858 14.67771162 -12.80517578 16.08642578 C-14.9702105 18.22063464 -17.12470535 20.36501457 -19.27734375 22.51171875 C-20.66344863 23.88863908 -22.05014956 25.26495968 -23.4375 26.640625 C-24.39269531 27.5894455 -24.39269531 27.5894455 -25.3671875 28.55743408 C-29.76294354 32.88507761 -34.31863164 36.98419798 -39 41 C-39.67603271 41.5814679 -40.35206543 42.16293579 -41.04858398 42.76202393 C-42.69686927 44.17723346 -44.3481046 45.58900602 -46 47 C-49.76488042 45.27845212 -52.15063897 43.00765886 -55 40 C-54.67 39.01 -54.34 38.02 -54 37 C-52.02 39.31 -50.04 41.62 -48 44 C-43.77314893 42.94328723 -42.87751117 42.24347625 -39.9375 39.26220703 C-39.14988281 38.47113556 -38.36226562 37.68006409 -37.55078125 36.86502075 C-36.70902344 36.00464203 -35.86726562 35.14426331 -35 34.2578125 C-34.12730469 33.37850067 -33.25460937 32.49918884 -32.35546875 31.5932312 C-30.03696515 29.25526681 -27.72482635 26.91125111 -25.41601562 24.5637207 C-22.16594426 21.26153613 -18.90583722 17.96927823 -15.64453125 14.67819214 C-13.90955319 12.92625591 -12.1776709 11.1712473 -10.44921875 9.41287231 C-9.66160156 8.61549652 -8.87398437 7.81812073 -8.0625 6.99658203 C-7.37285156 6.29566437 -6.68320312 5.5947467 -5.97265625 4.87258911 C-4.07693524 3.07303254 -2.12337608 1.52035004 0 0 Z " fill="#AB91E1" transform="translate(846,248)"/>
<path d="M0 0 C0.99 0 1.98 0 3 0 C3 0.66 3 1.32 3 2 C2.00709961 2.3810791 1.01419922 2.7621582 -0.00878906 3.15478516 C-3.87817594 4.64013884 -7.74721383 6.1263997 -11.61611938 7.61300659 C-13.36881106 8.28642832 -15.12155745 8.95970766 -16.87435913 9.63284302 C-26.77129087 13.43425234 -36.66213554 17.25014443 -46.53515625 21.11328125 C-47.78125168 21.60033539 -47.78125168 21.60033539 -49.05252075 22.097229 C-53.03633712 23.654578 -57.01874686 25.21536446 -60.99902344 26.78173828 C-62.43288746 27.34291463 -63.86680377 27.90395739 -65.30078125 28.46484375 C-66.28087914 28.85280876 -66.28087914 28.85280876 -67.28077698 29.24861145 C-71.77291501 31 -71.77291501 31 -74 31 C-74.33 31.66 -74.66 32.32 -75 33 C-74.67 31.68 -74.34 30.36 -74 29 C-72.02 28.67 -70.04 28.34 -68 28 C-68 27.34 -68 26.68 -68 26 C-66.35 26 -64.7 26 -63 26 C-63 25.34 -63 24.68 -63 24 C-62.33355469 23.84144531 -61.66710937 23.68289062 -60.98046875 23.51953125 C-60.05878906 23.28621094 -59.13710938 23.05289063 -58.1875 22.8125 C-57.29417969 22.59207031 -56.40085937 22.37164062 -55.48046875 22.14453125 C-52.46661526 21.15344363 -49.75356208 20.00882333 -46.8828125 18.67578125 C-40.92917163 15.91276281 -34.85108906 13.62194007 -28.6875 11.375 C-22.62434793 9.16069647 -16.75530201 6.93814217 -11 4 C-9.24345589 3.41365004 -7.47250128 2.86797456 -5.6875 2.375 C-2.56752792 1.68171999 -2.56752792 1.68171999 0 0 Z " fill="#6C61CD" transform="translate(603,215)"/>
<path d="M0 0 C2.50068685 1.64866035 4.42626574 3.66945578 6.4375 5.875 C6.97826172 6.43058594 7.51902344 6.98617188 8.07617188 7.55859375 C12 11.67588496 12 11.67588496 12 14 C12.58910156 14.25136719 13.17820312 14.50273437 13.78515625 14.76171875 C16.27644202 16.15455401 17.62300414 17.6208572 19.4375 19.8125 C22.16564361 23.0404113 24.96702285 26.05893125 28 29 C27.67 29.66 27.34 30.32 27 31 C25.72153198 29.67440063 25.72153198 29.67440063 24.41723633 28.32202148 C21.25494387 25.05123407 18.07292001 21.80025908 14.88452148 18.55493164 C13.50664736 17.1468602 12.13420307 15.73345418 10.76733398 14.31469727 C8.80290232 12.27758805 6.81981681 10.26038794 4.83203125 8.24609375 C4.22349808 7.60659286 3.6149649 6.96709198 2.98799133 6.30821228 C-0.1921187 2.90899534 -0.1921187 2.90899534 -4.5065918 1.96459961 C-5.3294165 2.30628174 -6.15224121 2.64796387 -7 3 C-8.05010254 3.34562988 -9.10020508 3.69125977 -10.18212891 4.04736328 C-11.35179199 4.46743652 -12.52145508 4.88750977 -13.7265625 5.3203125 C-15.01811147 5.77767626 -16.30978178 6.23469747 -17.6015625 6.69140625 C-19.62186942 7.40970473 -21.64105422 8.13078708 -23.65820312 8.85791016 C-25.61570851 9.56183365 -27.57695041 10.25435257 -29.5390625 10.9453125 C-31.29017334 11.57203857 -31.29017334 11.57203857 -33.07666016 12.21142578 C-36 13 -36 13 -39 12 C-33.00239964 8.55457001 -26.88721883 6.65812237 -20.25610352 4.83911133 C-16.78829941 3.8758985 -13.6988365 2.86137959 -10.41015625 1.34765625 C-6.49370037 -0.20008405 -4.16731969 -0.66714701 0 0 Z " fill="#9680D0" transform="translate(776,359)"/>
<path d="M0 0 C0 9.27020167 -13.19905547 19.53472075 -19.1875 25.5625 C-27.02157264 33.35939212 -35.04360328 40.53077532 -44 47 C-45.33465143 47.99824012 -46.66858482 48.99744756 -48 50 C-48.66 49.67 -49.32 49.34 -50 49 C-49.0821875 48.21496094 -48.164375 47.42992187 -47.21875 46.62109375 C-37.55319423 38.37510258 -37.55319423 38.37510258 -28 30 C-27.06542969 29.16984375 -26.13085938 28.3396875 -25.16796875 27.484375 C-15.80487413 19.08869598 -7.56259818 10.06725288 0 0 Z " fill="#9B85D7" transform="translate(846,467)"/>
<path d="M0 0 C0.99 0.33 1.98 0.66 3 1 C2.08476563 1.90363281 1.16953125 2.80726563 0.2265625 3.73828125 C-0.97409058 4.92955423 -2.17460415 6.12096783 -3.375 7.3125 C-3.97828125 7.90740234 -4.5815625 8.50230469 -5.203125 9.11523438 C-5.78320312 9.69208984 -6.36328125 10.26894531 -6.9609375 10.86328125 C-7.49509277 11.39219971 -8.02924805 11.92111816 -8.57958984 12.46606445 C-11.21810199 15.29037839 -11.21810199 15.29037839 -12.0534668 18.9387207 C-11.31269149 24.46013132 -10.24667889 29.804295 -8.8125 35.1875 C-8.5969043 36.00541016 -8.38130859 36.82332031 -8.15917969 37.66601562 C-6.11144815 45.12873001 -3.22507381 51.97832032 0 59 C0.33 59.99 0.66 60.98 1 62 C-2 61 -2 61 -3.5 58.4453125 C-6.38467421 52.05996595 -8.82999311 45.87057434 -10.45703125 39.046875 C-10.81086453 37.02174647 -10.81086453 37.02174647 -12 36 C-12.32097751 33.68182911 -12.51220956 31.36220643 -12.71875 29.03125 C-12.79065837 27.00819407 -12.79065837 27.00819407 -14 26 C-14.61463925 21.50301913 -15.05127179 16.93673897 -12.8359375 12.85546875 C-9.93214705 9.43793075 -6.52264166 6.76098941 -3 4 C-1.23676495 1.87396815 -1.23676495 1.87396815 0 0 Z " fill="#635AC8" transform="translate(585,374)"/>
<path d="M0 0 C7.25511656 10.88267484 3.59155095 32.59340657 1.625 44.9375 C1.43599121 46.12508911 1.43599121 46.12508911 1.24316406 47.33666992 C0.28103266 52.71896734 0.28103266 52.71896734 -2 55 C-2.09765625 48.84765625 -2.09765625 48.84765625 -2 47 C-1.505 46.505 -1.505 46.505 -1 46 C0.17101445 35.56095662 0.12834169 25.05120512 0.0625 14.5625 C0.05746421 13.1373714 0.05290506 11.71224104 0.04882812 10.28710938 C0.03801182 6.85803507 0.02086761 3.42902968 0 0 Z " fill="#947EC7" transform="translate(825,356)"/>
<path d="M0 0 C0.33 0 0.66 0 1 0 C1.04638088 11.87439854 1.08189849 23.74877545 1.10362434 35.62324619 C1.11405269 41.13729113 1.12819466 46.65127399 1.15087891 52.1652832 C1.17264098 57.48856655 1.18457577 62.81179026 1.18975449 68.13511467 C1.19344419 70.16404089 1.20064924 72.19296393 1.21146011 74.2218647 C1.22601964 77.0679843 1.22797606 79.9138588 1.22705078 82.76000977 C1.23783661 84.01266129 1.23783661 84.01266129 1.24884033 85.2906189 C1.23147688 90.24025288 0.58401794 94.30406818 -1 99 C-1.33 99 -1.66 99 -2 99 C-2.09765625 92.84765625 -2.09765625 92.84765625 -2 91 C-1.505 90.505 -1.505 90.505 -1 90 C-0.8747903 87.20091293 -0.81391277 84.42529671 -0.79467773 81.62475586 C-0.78477814 80.74678848 -0.77487854 79.86882111 -0.76467896 78.96424866 C-0.73296573 76.04780825 -0.70826789 73.13135152 -0.68359375 70.21484375 C-0.66303269 68.19844629 -0.64203646 66.18205323 -0.62062073 64.16566467 C-0.56531241 58.84739734 -0.5159419 53.52909055 -0.46777344 48.21075439 C-0.4176222 42.78825349 -0.36190293 37.36581018 -0.30664062 31.94335938 C-0.19895198 21.29562207 -0.09753094 10.64783485 0 0 Z " fill="#B699EB" transform="translate(883,351)"/>
<path d="M0 0 C1 3 1 3 0.19555664 4.7175293 C-0.22862549 5.33023682 -0.65280762 5.94294434 -1.08984375 6.57421875 C-1.54423828 7.24130859 -1.99863281 7.90839844 -2.46679688 8.59570312 C-2.95212891 9.28599609 -3.43746094 9.97628906 -3.9375 10.6875 C-4.41896484 11.38939453 -4.90042969 12.09128906 -5.39648438 12.81445312 C-6.58846676 14.54931858 -7.79306473 16.27550373 -9 18 C-18.30478523 17.12121473 -27.28695471 16.15856518 -36.3203125 13.65625 C-39.80070181 12.80390976 -43.23230854 12.52596644 -46.796875 12.25 C-49.69814395 11.92077799 -52.29209085 11.06891151 -55 10 C-55 9.67 -55 9.34 -55 9 C-46.38560485 9.51384111 -38.13020165 10.80912915 -29.6875 12.5625 C-25.46726435 13.43839796 -21.24784622 14.26900458 -17 15 C-16.28787354 15.13712402 -15.57574707 15.27424805 -14.84204102 15.41552734 C-12.82706528 15.74020563 -12.82706528 15.74020563 -10 15 C-7.70185514 12.77995302 -6.16804465 10.24600086 -4.5625 7.5 C-4.11712891 6.78457031 -3.67175781 6.06914062 -3.21289062 5.33203125 C-2.11945415 3.56842404 -1.05665134 1.7858896 0 0 Z " fill="#6960CA" transform="translate(641,427)"/>
<path d="M0 0 C0.76166977 0.00222061 1.52333954 0.00444122 2.30809021 0.00672913 C3.16890701 0.00680466 4.02972382 0.00688019 4.91662598 0.00695801 C5.8520372 0.01211929 6.78744843 0.01728058 7.75120544 0.02259827 C8.70422043 0.02401321 9.65723541 0.02542816 10.63912964 0.02688599 C13.69605085 0.032503 16.75289996 0.04505836 19.80979919 0.05775452 C21.87685543 0.06276733 23.94391281 0.06733061 26.01097107 0.07142639 C31.08977507 0.08247795 36.16852489 0.09975397 41.24729919 0.12025452 C41.24729919 0.78025452 41.24729919 1.44025452 41.24729919 2.12025452 C40.00117859 2.11388977 38.75505798 2.10752502 37.47117615 2.10096741 C32.83950223 2.08651702 28.209067 2.11788856 23.57762146 2.16297913 C21.57473467 2.17610378 19.57172663 2.17686689 17.5688324 2.16493225 C14.68570283 2.14991223 11.80593466 2.17960995 8.92308044 2.21791077 C8.03018814 2.20365555 7.13729584 2.18940033 6.21734619 2.17471313 C1.42637342 2.23044155 1.42637342 2.23044155 -2.46305847 4.7386322 C-4.04818143 6.85982284 -4.04818143 6.85982284 -5.75270081 10.12025452 C-6.08270081 9.13025452 -6.41270081 8.14025452 -6.75270081 7.12025452 C-2.58704803 0.1774999 -2.58704803 0.1774999 0 0 Z " fill="#8677DC" transform="translate(667.7527008056641,420.87974548339844)"/>
<path d="M0 0 C0.66 0.33 1.32 0.66 2 1 C-0.97 3.97 -3.94 6.94 -7 10 C-5.71241947 13.86274158 -4.39535633 17.55634602 -2.84228516 21.30249023 C1.04918265 30.70951055 4.5850934 39.66334996 4 50 C2 48 2 48 1.8046875 46.0546875 C1.86979167 44.03645833 1.93489583 42.01822917 2 40 C1.34 40 0.68 40 0 40 C0 37.69 0 35.38 0 33 C-0.66 33 -1.32 33 -2 33 C-2.268125 32.01 -2.53625 31.02 -2.8125 30 C-4.18794862 25.19080729 -5.64743839 20.23172666 -8.25 15.9375 C-9.43946143 12.86472464 -8.60788099 10.16098114 -8 7 C-7.34 7 -6.68 7 -6 7 C-5.67 6.01 -5.34 5.02 -5 4 C-3.37667033 2.61423077 -1.71275535 1.27358732 0 0 Z " fill="#9E86D2" transform="translate(821,305)"/>
<path d="M0 0 C2.89346751 1.35618714 5.36760978 2.90947986 7.9140625 4.8359375 C8.6671167 5.40038574 9.4201709 5.96483398 10.19604492 6.54638672 C11.39837769 7.45155029 11.39837769 7.45155029 12.625 8.375 C21.8624891 15.26558981 31.34975636 21.70485899 41 28 C38 29 38 29 35.8125 28.0625 C35.214375 27.711875 34.61625 27.36125 34 27 C34 26.34 34 25.68 34 25 C32.02 24.34 30.04 23.68 28 23 C28 22.34 28 21.68 28 21 C26.02 20.34 24.04 19.68 22 19 C22 18.34 22 17.68 22 17 C21.360625 16.87625 20.72125 16.7525 20.0625 16.625 C19.0415625 16.315625 19.0415625 16.315625 18 16 C17.67 15.34 17.34 14.68 17 14 C16.01 13.67 15.02 13.34 14 13 C14 12.34 14 11.68 14 11 C12.8553125 10.566875 12.8553125 10.566875 11.6875 10.125 C9 9 9 9 6 7 C6 6.34 6 5.68 6 5 C5.195625 4.731875 4.39125 4.46375 3.5625 4.1875 C2.716875 3.795625 1.87125 3.40375 1 3 C0.67 2.01 0.34 1.02 0 0 Z " fill="#6159C7" transform="translate(579,516)"/>
<path d="M0 0 C0.66 0.66 1.32 1.32 2 2 C1.57178955 2.42297363 1.1435791 2.84594727 0.70239258 3.28173828 C-1.26361643 5.22677299 -3.22557295 7.17584829 -5.1875 9.125 C-5.86103516 9.79015625 -6.53457031 10.4553125 -7.22851562 11.140625 C-10.2519692 14.14933002 -13.13943005 17.10601677 -15.73828125 20.4921875 C-16.48464844 21.31976563 -17.23101563 22.14734375 -18 23 C-19.32 23 -20.64 23 -22 23 C-22 22.34 -22 21.68 -22 21 C-22.66 21 -23.32 21 -24 21 C-23.505 19.515 -23.505 19.515 -23 18 C-21.68 18.66 -20.36 19.32 -19 20 C-18.21496094 19.05898438 -17.42992187 18.11796875 -16.62109375 17.1484375 C-15.5601911 15.89037595 -14.49897639 14.63257751 -13.4375 13.375 C-12.92380859 12.75753906 -12.41011719 12.14007813 -11.88085938 11.50390625 C-8.24821929 7.21693969 -4.37161443 3.52837131 0 0 Z " fill="#6F63CF" transform="translate(597,272)"/>
<path d="M0 0 C3.62528568 -0.20140476 5.86501708 0.14223235 9 2 C9 2.66 9 3.32 9 4 C9.721875 4.12632812 10.44375 4.25265625 11.1875 4.3828125 C13.9447595 4.98787778 16.37620716 5.84308147 19 6.875 C24.39277796 8.90280207 29.80223876 10.16044775 35.4453125 11.2890625 C36.28835938 11.52367187 37.13140625 11.75828125 38 12 C38.495 12.99 38.495 12.99 39 14 C31.9964121 13.60517181 26.02255624 12.29815695 19.5 9.75 C18.67846436 9.43861084 17.85692871 9.12722168 17.01049805 8.80639648 C11.16019074 6.55182569 5.48118902 4.05762986 0 1 C0 0.67 0 0.34 0 0 Z " fill="#6259BE" transform="translate(621,501)"/>
<path d="M0 0 C3.54184054 1.498471 5.72776562 3.54915885 8.375 6.3125 C11.00640255 9.01784279 13.6055296 11.59158999 16.5625 13.9375 C17.366875 14.618125 18.17125 15.29875 19 16 C19 16.66 19 17.32 19 18 C19.598125 18.2475 20.19625 18.495 20.8125 18.75 C23.46577338 20.26615621 24.65480191 21.23487058 26 24 C25.21220086 28.41167517 23.96555453 31.63005167 21 35 C20.67 34.01 20.34 33.02 20 32 C20.515625 31.030625 21.03125 30.06125 21.5625 29.0625 C23.31419128 26.23777356 23.31419128 26.23777356 22.38916016 24.11791992 C20.61146664 21.40764026 18.52586395 19.32086806 16.2109375 17.05078125 C15.74765045 16.59269577 15.2843634 16.13461029 14.80703735 15.66264343 C13.33438759 14.2077355 11.85519271 12.75973003 10.375 11.3125 C8.42132002 9.39508102 6.47175161 7.47367094 4.5234375 5.55078125 C3.65638184 4.70169189 2.78932617 3.85260254 1.89599609 2.9777832 C0 1 0 1 0 0 Z " fill="#6A60CF" transform="translate(539,291)"/>
<path d="M0 0 C2.31 0.66 4.62 1.32 7 2 C6.13375 2.185625 6.13375 2.185625 5.25 2.375 C0.83612199 3.60107722 -1.81276458 5.58276513 -4.96875 8.87890625 C-5.70480469 9.63494141 -6.44085937 10.39097656 -7.19921875 11.16992188 C-8.73502569 12.76700465 -10.26887718 14.36597013 -11.80078125 15.96679688 C-12.53683594 16.72154297 -13.27289062 17.47628906 -14.03125 18.25390625 C-14.69705078 18.94814697 -15.36285156 19.6423877 -16.04882812 20.35766602 C-18.08417962 22.07085539 -19.3996488 22.60538149 -22 23 C-17.47008204 17.56266945 -12.65705784 12.53541069 -7.625 7.5625 C-6.88894531 6.83095703 -6.15289063 6.09941406 -5.39453125 5.34570312 C-3.59863926 3.56147277 -1.80044015 1.77963876 0 0 Z " fill="#07051E" transform="translate(602,360)"/>
<path d="M0 0 C1.32 0 2.64 0 4 0 C4 0.66 4 1.32 4 2 C4.8971875 2.2165625 4.8971875 2.2165625 5.8125 2.4375 C7.56150404 2.8872439 9.28677023 3.42892341 11 4 C11 4.66 11 5.32 11 6 C11.99 6 12.98 6 14 6 C14 6.66 14 7.32 14 8 C14.763125 8.144375 15.52625 8.28875 16.3125 8.4375 C19 9 19 9 22 10 C22 10.66 22 11.32 22 12 C23.32 12 24.64 12 26 12 C26 12.66 26 13.32 26 14 C26.99 14 27.98 14 29 14 C29 14.66 29 15.32 29 16 C30.65 16.33 32.3 16.66 34 17 C34 17.66 34 18.32 34 19 C28.24040356 17.3854246 23.31114441 14.58881259 18.125 11.6875 C17.26519531 11.21376953 16.40539062 10.74003906 15.51953125 10.25195312 C4.11535518 3.9268752 4.11535518 3.9268752 0 1 C0 0.67 0 0.34 0 0 Z " fill="#675DC4" transform="translate(637,585)"/>
<path d="M0 0 C7.29141088 3.80018448 14.25396762 7.98255815 21.19921875 12.37402344 C26.044447 15.42913123 30.94911023 18.29416619 36 21 C36 21.33 36 21.66 36 22 C34.35 22 32.7 22 31 22 C31 21.34 31 20.68 31 20 C30.43796875 19.88785156 29.8759375 19.77570312 29.296875 19.66015625 C26.68486892 18.90942661 24.60528678 17.78832624 22.25 16.4375 C21.45078125 15.98246094 20.6515625 15.52742187 19.828125 15.05859375 C19.22484375 14.70925781 18.6215625 14.35992188 18 14 C18 13.34 18 12.68 18 12 C17.45472656 11.90589844 16.90945313 11.81179688 16.34765625 11.71484375 C13.33470055 10.7974213 11.07029158 9.28545612 8.4375 7.5625 C7.48746094 6.94503906 6.53742187 6.32757812 5.55859375 5.69140625 C3.70314985 4.46483036 1.85066401 3.23377601 0 2 C0 1.34 0 0.68 0 0 Z " fill="#695FC9" transform="translate(623,547)"/>
<path d="M0 0 C1.42546128 4.27638385 -0.17402079 7.48088011 -1.52734375 11.60546875 C-1.79511124 12.44467361 -2.06287872 13.28387848 -2.33876038 14.14851379 C-3.19674211 16.8309102 -4.06694937 19.50915947 -4.9375 22.1875 C-5.52099117 24.00429771 -6.10368358 25.82135216 -6.68554688 27.63867188 C-8.11444298 32.09548107 -9.55431665 36.54860927 -11 41 C-11.33 41 -11.66 41 -12 41 C-12 38.36 -12 35.72 -12 33 C-11.34 33 -10.68 33 -10 33 C-9.89042969 32.29875 -9.78085937 31.5975 -9.66796875 30.875 C-8.80393275 25.70483336 -7.77668096 20.96186567 -5.7890625 16.11328125 C-4.48818473 12.62924723 -3.64605739 9.02290784 -2.74609375 5.41796875 C-2 3 -2 3 0 0 Z " fill="#8D7CD5" transform="translate(735,373)"/>
<path d="M0 0 C4.57766293 0.63383025 8.41683371 2.43999766 12.5 4.5 C13.54426147 5.02424561 13.54426147 5.02424561 14.60961914 5.55908203 C32.35063507 14.70127013 32.35063507 14.70127013 35 20 C31.51669784 19.35494404 28.90567134 18.01782732 26 16 C26 15.34 26 14.68 26 14 C24.68 14 23.36 14 22 14 C22 13.34 22 12.68 22 12 C21.34 12 20.68 12 20 12 C20 11.34 20 10.68 20 10 C19.195625 9.84337891 19.195625 9.84337891 18.375 9.68359375 C15.37174394 8.81916972 12.78175791 7.48467373 10 6.0625 C8.96875 5.53785156 7.9375 5.01320312 6.875 4.47265625 C5.92625 3.98667969 4.9775 3.50070313 4 3 C2.66754443 2.33158068 1.33461415 1.66409887 0 1 C0 0.67 0 0.34 0 0 Z " fill="#9B85D3" transform="translate(739,249)"/>
<path d="M0 0 C0.66 0.33 1.32 0.66 2 1 C1.48308594 1.35449219 0.96617187 1.70898438 0.43359375 2.07421875 C-1.85950222 3.92754289 -3.43134729 5.48933653 -5 8 C-5.39690113 12.45535493 -4.7624604 16.60889595 -4 21 C-3.24477937 26.11871762 -2.90941571 30.83669545 -3 36 C-3.33 36 -3.66 36 -4 36 C-4 34.02 -4 32.04 -4 30 C-4.66 30 -5.32 30 -6 30 C-6.06058594 28.85660156 -6.12117187 27.71320313 -6.18359375 26.53515625 C-6.26798428 25.04425695 -6.35263302 23.55337225 -6.4375 22.0625 C-6.47681641 21.30775391 -6.51613281 20.55300781 -6.55664062 19.77539062 C-6.44038024 16.08055813 -6.44038024 16.08055813 -8 13 C-8.04080783 11.00041636 -8.04254356 8.99954746 -8 7 C-7.34 7 -6.68 7 -6 7 C-5.34 5.68 -4.68 4.36 -4 3 C-3.34 3 -2.68 3 -2 3 C-2 2.34 -2 1.68 -2 1 C-1.34 0.67 -0.68 0.34 0 0 Z " fill="#695EBD" transform="translate(609,290)"/>
<path d="M0 0 C0.99 0.33 1.98 0.66 3 1 C2.69707031 1.69480469 2.39414062 2.38960938 2.08203125 3.10546875 C-2.17997621 13.45231147 -4.59569713 24.0979167 -7 35 C-7.33 35 -7.66 35 -8 35 C-8.02688151 33.35425434 -8.04634123 31.70838587 -8.0625 30.0625 C-8.07410156 29.14597656 -8.08570313 28.22945313 -8.09765625 27.28515625 C-8 25 -8 25 -7 24 C-6.63239269 21.67182036 -6.29758419 19.3381615 -6 17 C-5.34 17 -4.68 17 -4 17 C-4.061875 16.13375 -4.12375 15.2675 -4.1875 14.375 C-3.97316094 10.51689696 -2.79844649 8.3810794 -1 5 C-0.30092586 2.26427415 -0.30092586 2.26427415 0 0 Z " fill="#6960CD" transform="translate(579,329)"/>
<path d="M0 0 C0.66 0 1.32 0 2 0 C2 0.66 2 1.32 2 2 C2.70125 2.226875 3.4025 2.45375 4.125 2.6875 C7.87135874 4.39779421 10.10097751 6.03355839 13 9 C14.20904428 15.95200459 10.79968085 22.76434721 8 29 C7.34 29 6.68 29 6 29 C6.19335938 28.29875 6.38671875 27.5975 6.5859375 26.875 C8.125617 21.26507866 9.61417657 15.64989553 11 10 C10.2059375 9.44570313 9.411875 8.89140625 8.59375 8.3203125 C7.5728125 7.59585937 6.551875 6.87140625 5.5 6.125 C4.4790625 5.40570313 3.458125 4.68640625 2.40625 3.9453125 C1.6121875 3.30335938 0.818125 2.66140625 0 2 C0 1.34 0 0.68 0 0 Z " fill="#8575CA" transform="translate(706,359)"/>
<path d="M0 0 C5.25174926 4.38442526 10.13222473 9.00842093 14.9375 13.875 C15.62134766 14.56335938 16.30519531 15.25171875 17.00976562 15.9609375 C18.67551464 17.63833511 20.3388622 19.31803791 22 21 C21.34 21.33 20.68 21.66 20 22 C19.34 21.67 18.68 21.34 18 21 C18 20.34 18 19.68 18 19 C16.68 18.34 15.36 17.68 14 17 C14 16.34 14 15.68 14 15 C13.44828125 14.77183594 12.8965625 14.54367187 12.328125 14.30859375 C9.32568264 12.62097934 7.1886055 10.49040986 4.75 8.0625 C3.85796875 7.18722656 2.9659375 6.31195313 2.046875 5.41015625 C0 3 0 3 0 0 Z " fill="#6A5FCF" transform="translate(537,255)"/>
<path d="M0 0 C0.81621826 0.4168103 0.81621826 0.4168103 1.64892578 0.84204102 C4.13292856 2.09883128 6.6285046 3.33072477 9.125 4.5625 C9.9809375 5.00013672 10.836875 5.43777344 11.71875 5.88867188 C18.09649508 9.01464771 18.09649508 9.01464771 25 8 C26.051875 7.46375 27.10375 6.9275 28.1875 6.375 C31 5 31 5 34 6 C29.43809559 9.48047203 25.43347352 11.93294117 19.5703125 11.63671875 C14.94305403 10.49045259 10.99499281 8.04004951 6.91796875 5.62890625 C4.49904741 4.2785847 2.69590098 3.46345998 0 3 C0 2.01 0 1.02 0 0 Z " fill="#8776D0" transform="translate(667,266)"/>
<path d="M0 0 C0.33 0.99 0.66 1.98 1 3 C-6.32021923 9.84101752 -13.99523547 15.99015328 -22 22 C-22.66 21.67 -23.32 21.34 -24 21 C-23.0821875 20.21496094 -22.164375 19.42992187 -21.21875 18.62109375 C-10.36364502 9.57853756 -10.36364502 9.57853756 0 0 Z " fill="#907BD1" transform="translate(820,495)"/>
<path d="M0 0 C3.51705958 0.65271556 6.89325077 1.51393024 10.3125 2.5625 C11.19550781 2.83191406 12.07851563 3.10132813 12.98828125 3.37890625 C13.65214844 3.58386719 14.31601562 3.78882813 15 4 C15 4.66 15 5.32 15 6 C15.58007812 6.10957031 16.16015625 6.21914062 16.7578125 6.33203125 C21.59746277 7.3143365 25.65366116 8.54821911 30 11 C26.16378889 12.46841986 23.89550917 11.48087555 20.17578125 9.98046875 C19.06525391 9.53509766 17.95472656 9.08972656 16.81054688 8.63085938 C15.65619141 8.15455078 14.50183594 7.67824219 13.3125 7.1875 C12.14654297 6.72279297 10.98058594 6.25808594 9.77929688 5.77929688 C1.13514169 2.27028339 1.13514169 2.27028339 0 0 Z " fill="#917ECA" transform="translate(738,203)"/>
<path d="M0 0 C0 3.74353445 -0.78393154 4.16885472 -3.359375 6.7578125 C-4.06320312 7.46550781 -4.76703125 8.17320312 -5.4921875 8.90234375 C-6.23726562 9.63582031 -6.98234375 10.36929687 -7.75 11.125 C-8.47960937 11.86621094 -9.20921875 12.60742188 -9.9609375 13.37109375 C-10.66992188 14.07621094 -11.37890625 14.78132813 -12.109375 15.5078125 C-12.75874023 16.15379395 -13.40810547 16.79977539 -14.07714844 17.46533203 C-16.09199441 19.07342266 -17.48004603 19.59588287 -20 20 C-14.03657272 12.78111435 -7.66926387 5.44270339 0 0 Z " fill="#A087D2" transform="translate(846,248)"/>
<path d="M0 0 C0 0.66 0 1.32 0 2 C-4.24299971 3.70549326 -8.4953784 5.38623294 -12.75 7.0625 C-14.55984375 7.79049805 -14.55984375 7.79049805 -16.40625 8.53320312 C-18.14648438 9.21479492 -18.14648438 9.21479492 -19.921875 9.91015625 C-20.99018555 10.33433838 -22.05849609 10.75852051 -23.15917969 11.19555664 C-26.01742544 12.00493441 -27.27699088 12.05990545 -30 11 C-15.24105421 5.0618304 -15.24105421 5.0618304 -10.3125 3.25 C-7.1195572 2.11658628 -7.1195572 2.11658628 -4.6875 0.8125 C-3 0 -3 0 0 0 Z " fill="#7568CF" transform="translate(606,215)"/>
<path d="M0 0 C0.33 0 0.66 0 1 0 C1.04965427 5.28359629 1.08583957 10.56705496 1.10986328 15.85083008 C1.1198846 17.64610156 1.13350533 19.44135688 1.15087891 21.23657227 C1.17529809 23.82572435 1.18652198 26.41465951 1.1953125 29.00390625 C1.20563507 29.79898087 1.21595764 30.59405548 1.22659302 31.41322327 C1.2275689 36.32462752 0.56706771 40.3394647 -1 45 C-1.33 45 -1.66 45 -2 45 C-2.09765625 38.84765625 -2.09765625 38.84765625 -2 37 C-1.505 36.505 -1.505 36.505 -1 36 C-0.83996512 33.33573315 -0.74057111 30.69439572 -0.68359375 28.02734375 C-0.66281265 27.22970108 -0.64203156 26.43205841 -0.62062073 25.61024475 C-0.55503842 23.05275389 -0.49620033 20.4951572 -0.4375 17.9375 C-0.39432301 16.20767118 -0.35070899 14.47785321 -0.30664062 12.74804688 C-0.19934828 8.4988074 -0.09810574 4.2494611 0 0 Z " fill="#B498EC" transform="translate(883,405)"/>
<path d="M0 0 C-4 2 -4 2 -5.78125 2.71875 C-8.91567794 4.52877177 -11.25476528 7.04462604 -13.75 9.625 C-14.50990234 10.3984375 -14.50990234 10.3984375 -15.28515625 11.1875 C-16.52803902 12.45383339 -17.76465276 13.7263144 -19 15 C-19.66 14.34 -20.32 13.68 -21 13 C-19.02371678 10.80680765 -17.02366136 8.64874418 -15 6.5 C-14.44699219 5.87996094 -13.89398437 5.25992187 -13.32421875 4.62109375 C-8.91660908 0.01083536 -6.34160345 -0.72316531 0 0 Z " fill="#695FC9" transform="translate(608,359)"/>
<path d="M0 0 C4.31966413 0.58853312 8.02105787 1.64259573 12.0546875 3.28515625 C13.16328125 3.73310547 14.271875 4.18105469 15.4140625 4.64257812 C16.55617188 5.11115234 17.69828125 5.57972656 18.875 6.0625 C20.0403125 6.53494141 21.205625 7.00738281 22.40625 7.49414062 C25.27309544 8.65732791 28.13752807 9.82610058 31 11 C27.06942261 12.31019246 25.88061325 11.46011876 22 10 C21.1961084 9.70738281 20.3922168 9.41476563 19.56396484 9.11328125 C16.76537337 8.09212582 13.97618191 7.04789136 11.1875 6 C10.22134766 5.64421875 9.25519531 5.2884375 8.25976562 4.921875 C7.34259766 4.57640625 6.42542969 4.2309375 5.48046875 3.875 C4.64410889 3.56304687 3.80774902 3.25109375 2.94604492 2.9296875 C1 2 1 2 0 0 Z " fill="#A48CD5" transform="translate(804,203)"/>
<path d="M0 0 C0.33 0 0.66 0 1 0 C1.28856618 5.38656877 0.81600851 9.01996089 -1.265625 13.96875 C-2.45698809 17.26400961 -2.68937027 20.52094699 -3 24 C-5.22926098 20.65610853 -5.14295565 19.39152243 -4.55859375 15.5390625 C-3.39717325 10.25987841 -1.68212493 5.13243699 0 0 Z " fill="#5D55BE" transform="translate(556,330)"/>
<path d="M0 0 C0.33 0 0.66 0 1 0 C1.30892527 9.21627045 0.39049107 17.91214765 -1 27 C-4.81428757 21.05851359 -2.65428607 12.67482477 -1.48046875 6.08203125 C-1.03023544 4.04464454 -0.5224341 2.02007853 0 0 Z " fill="#9F88D6" transform="translate(787,320)"/>
<path d="M0 0 C0.66 0 1.32 0 2 0 C2.88639389 2.65918166 3.17989025 4.48064641 3.31640625 7.23046875 C3.35830078 8.03291016 3.40019531 8.83535156 3.44335938 9.66210938 C3.48267578 10.49548828 3.52199219 11.32886719 3.5625 12.1875 C3.62727539 13.4549707 3.62727539 13.4549707 3.69335938 14.74804688 C3.79931518 16.83184433 3.9001502 18.91590103 4 21 C2.02 21.99 2.02 21.99 0 23 C0.33 22.34 0.66 21.68 1 21 C1.2275074 13.94727054 0.66506558 7.01881714 0 0 Z " fill="#6A5FCA" transform="translate(588,326)"/>
<path d="M0 0 C6.2020633 0.35106019 10.80663977 2.04084562 16.38671875 4.74609375 C18.88920914 5.94684026 21.4126093 6.99767748 24 8 C20.48604716 9.24540698 18.63330973 8.76387905 15.234375 7.34765625 C14.34492187 6.98349609 13.45546875 6.61933594 12.5390625 6.24414062 C11.61867188 5.85419922 10.69828125 5.46425781 9.75 5.0625 C8.81414063 4.67642578 7.87828125 4.29035156 6.9140625 3.89257812 C4.60502173 2.93833169 2.30081138 1.97388338 0 1 C0 0.67 0 0.34 0 0 Z " fill="#9580CA" transform="translate(770,216)"/>
<path d="M0 0 C7.61325817 0.37442253 13.23397656 2.57969524 20 6 C20.76699219 6.38285156 21.53398438 6.76570312 22.32421875 7.16015625 C22.87722656 7.43730469 23.43023438 7.71445313 24 8 C20.39486388 9.20171204 19.56440728 8.70719075 16.11328125 7.34765625 C15.17548828 6.98349609 14.23769531 6.61933594 13.27148438 6.24414062 C12.29501953 5.85419922 11.31855469 5.46425781 10.3125 5.0625 C9.32443359 4.67642578 8.33636719 4.29035156 7.31835938 3.89257812 C4.87550541 2.93667875 2.43639559 1.97221707 0 1 C0 0.67 0 0.34 0 0 Z " fill="#8775C5" transform="translate(712,194)"/>
<path d="M0 0 C2.50647681 0.17755444 4.94915405 0.42833016 7.4375 0.75 C8.13166016 0.82476562 8.82582031 0.89953125 9.54101562 0.9765625 C11.55859375 1.234375 11.55859375 1.234375 15 2 C15.99 3.485 15.99 3.485 17 5 C9 4 9 4 1 3 C1.99 4.32 2.98 5.64 4 7 C2.68 6.67 1.36 6.34 0 6 C-0.38218767 4.34385343 -0.71395102 2.67542976 -1 1 C-0.67 0.67 -0.34 0.34 0 0 Z " fill="#6158CA" transform="translate(602,455)"/>
<path d="M0 0 C0.99 0.33 1.98 0.66 3 1 C-0.63 6.94 -4.26 12.88 -8 19 C-9 16 -9 16 -8 13 C-7.34 13 -6.68 13 -6 13 C-6 12.01 -6 11.02 -6 10 C-5.34 10 -4.68 10 -4 10 C-3.8453125 9.195625 -3.8453125 9.195625 -3.6875 8.375 C-2.81907303 5.37497956 -1.44379704 2.7620465 0 0 Z " fill="#8B7AD1" transform="translate(783,487)"/>
<path d="M0 0 C0.66 0.33 1.32 0.66 2 1 C1.484897 6.31455478 -0.36164705 9.90623121 -3.0625 14.375 C-3.43955078 15.01566406 -3.81660156 15.65632813 -4.20507812 16.31640625 C-5.12839617 17.88254066 -6.06305393 19.44198034 -7 21 C-8 18 -8 18 -6.6015625 15.0390625 C-5.94929687 13.91242188 -5.29703125 12.78578125 -4.625 11.625 C-2.37123353 7.71907006 -0.5897618 4.49904002 0 0 Z " fill="#9F8AD5" transform="translate(877,456)"/>
<path d="M0 0 C-2.88602976 2.39280527 -5.32724204 3.5890098 -8.9375 4.5625 C-11.71119117 5.33229094 -14.22941669 6.09974639 -16.875 7.25 C-19.39247878 8.13852192 -20.49424299 7.73390373 -23 7 C-19.54643925 5.63342877 -16.08647708 4.28387972 -12.625 2.9375 C-11.64015625 2.54755859 -10.6553125 2.15761719 -9.640625 1.75585938 C-8.69960938 1.39169922 -7.75859375 1.02753906 -6.7890625 0.65234375 C-5.48509521 0.14175415 -5.48509521 0.14175415 -4.15478516 -0.37915039 C-2 -1 -2 -1 0 0 Z " fill="#5D57BE" transform="translate(519,224)"/>
<path d="M0 0 C1.32 0.33 2.64 0.66 4 1 C4 1.66 4 2.32 4 3 C4.66 3 5.32 3 6 3 C6 3.66 6 4.32 6 5 C6.556875 5.2475 7.11375 5.495 7.6875 5.75 C10.42410913 7.22924818 12.67650869 8.93467439 15 11 C15 11.66 15 12.32 15 13 C15.66 13 16.32 13 17 13 C16.67 13.99 16.34 14.98 16 16 C15.5875 15.57589844 15.175 15.15179687 14.75 14.71484375 C10.85824049 10.7622755 6.84154834 7.05744522 2.6015625 3.48046875 C1 2 1 2 0 0 Z " fill="#5750C1" transform="translate(537,512)"/>
<path d="M0 0 C0.66 0.66 1.32 1.32 2 2 C-1.96 5.96 -5.92 9.92 -10 14 C-10.66 13.67 -11.32 13.34 -12 13 C-8.13635705 8.51282966 -4.25209792 4.12324647 0 0 Z " fill="#5E54BF" transform="translate(587,349)"/>
<path d="M0 0 C1.65 0 3.3 0 5 0 C5 0.66 5 1.32 5 2 C6.65 2 8.3 2 10 2 C10 2.66 10 3.32 10 4 C10.721875 3.938125 11.44375 3.87625 12.1875 3.8125 C15.52858974 4.03523932 17.27032755 5.1282246 20 7 C15.76477475 8.41174175 12.85098345 6.7352686 8.875 5.1875 C8.13378906 4.91357422 7.39257812 4.63964844 6.62890625 4.35742188 C1.13086709 2.26173419 1.13086709 2.26173419 0 0 Z " fill="#A089D1" transform="translate(805,229)"/>
<path d="M0 0 C3.56410945 5.63403455 1.82349998 13.18589481 0.48046875 19.40625 C0.03975203 20.95351446 -0.47010392 22.48096456 -1 24 C-1.33 24 -1.66 24 -2 24 C-2.09765625 17.84765625 -2.09765625 17.84765625 -2 16 C-1.67 15.67 -1.34 15.34 -1 15 C-0.76346477 12.47403741 -0.57826308 9.96892793 -0.4375 7.4375 C-0.39431641 6.72658203 -0.35113281 6.01566406 -0.30664062 5.28320312 C-0.20028223 3.52238088 -0.09961154 1.7612168 0 0 Z " fill="#A28DD8" transform="translate(825,387)"/>
<path d="M0 0 C2.64 0.33 5.28 0.66 8 1 C8 1.66 8 2.32 8 3 C8.515625 3.103125 9.03125 3.20625 9.5625 3.3125 C12.86026435 4.24263866 15.86633332 5.61395512 19 7 C15.07871478 8.3058334 13.02168909 7.38030356 9.31640625 5.59960938 C8.63449219 5.25736328 7.95257812 4.91511719 7.25 4.5625 C6.55261719 4.22412109 5.85523438 3.88574219 5.13671875 3.53710938 C3.41931879 2.70193542 1.70894262 1.85234576 0 1 C0 0.67 0 0.34 0 0 Z " fill="#665CBB" transform="translate(671,604)"/>
<path d="M0 0 C0 3 0 3 -1.79296875 5.12109375 C-11.09706411 14.12162972 -11.09706411 14.12162972 -14 16 C-14.99 15.67 -15.98 15.34 -17 15 C-15.8803014 13.99406757 -14.7540588 12.9954151 -13.625 12 C-12.99851562 11.443125 -12.37203125 10.88625 -11.7265625 10.3125 C-10 9 -10 9 -8 9 C-8 8.34 -8 7.68 -8 7 C-6.25 5.2734375 -6.25 5.2734375 -4 3.375 C-3.2575 2.74335937 -2.515 2.11171875 -1.75 1.4609375 C-0.88375 0.73777344 -0.88375 0.73777344 0 0 Z " fill="#9882D7" transform="translate(839,510)"/>
<path d="M0 0 C0.99 0.33 1.98 0.66 3 1 C-3.435 6.94 -3.435 6.94 -10 13 C-10.99 12.67 -11.98 12.34 -13 12 C-12.14535156 11.21753906 -11.29070313 10.43507813 -10.41015625 9.62890625 C-9.29425993 8.60678273 -8.17837511 7.58464667 -7.0625 6.5625 C-6.21655273 5.7880957 -6.21655273 5.7880957 -5.35351562 4.99804688 C-2.64001674 2.53775333 -2.64001674 2.53775333 0 0 Z " fill="#8C7ACE" transform="translate(771,460)"/>
<path d="M0 0 C3.30653354 1.41088411 5.1547817 3.05531369 7.4375 5.8125 C10.16564361 9.0404113 12.96702285 12.05893125 16 15 C15.67 15.66 15.34 16.32 15 17 C12.49195282 14.54976242 9.9949924 12.08852402 7.5 9.625 C6.78457031 8.92632812 6.06914063 8.22765625 5.33203125 7.5078125 C4.65527344 6.8375 3.97851562 6.1671875 3.28125 5.4765625 C2.65283203 4.85861816 2.02441406 4.24067383 1.37695312 3.60400391 C0 2 0 2 0 0 Z " fill="#9C86D3" transform="translate(788,373)"/>
<path d="M0 0 C4.91935902 4.11619836 9.52647956 8.40410362 14 13 C13.01 13.33 12.02 13.66 11 14 C9.99403703 13.0479279 8.99538437 12.08812654 8 11.125 C7.443125 10.59132813 6.88625 10.05765625 6.3125 9.5078125 C5 8 5 8 5 6 C4.34 6 3.68 6 3 6 C3 5.34 3 4.68 3 4 C2.34 4 1.68 4 1 4 C0.67 2.68 0.34 1.36 0 0 Z " fill="#9780CD" transform="translate(786,347)"/>
<path d="M0 0 C4.35330092 6.52995138 5.43664818 14.28588216 5 22 C3 20 3 20 2.8046875 18.0546875 C2.86979167 16.03645833 2.93489583 14.01822917 3 12 C2.34 12 1.68 12 1 12 C0.67 8.04 0.34 4.08 0 0 Z " fill="#9480C3" transform="translate(820,333)"/>
<path d="M0 0 C6.27 1.98 12.54 3.96 19 6 C19 6.33 19 6.66 19 7 C14.49740696 7.19576491 10.95889059 6.60775067 6.6875 5.1875 C5.63949219 4.85105469 4.59148438 4.51460938 3.51171875 4.16796875 C2.68285156 3.78253906 1.85398437 3.39710938 1 3 C0.67 2.01 0.34 1.02 0 0 Z " fill="#7166CC" transform="translate(625,348)"/>
<path d="M0 0 C3.55533666 0.62441397 6.76798049 1.5506712 10.125 2.875 C11.39730469 3.36613281 11.39730469 3.36613281 12.6953125 3.8671875 C14.97685838 4.9886253 16.33899863 6.10016183 18 8 C11.5811453 6.26375242 5.86215164 4.14819255 0 1 C0 0.67 0 0.34 0 0 Z " fill="#8575C5" transform="translate(691,185)"/>
<path d="M0 0 C0.66 0 1.32 0 2 0 C0.69876154 3.90371537 -1.11715718 4.8170602 -4.4375 7.1875 C-5.42621094 7.90292969 -6.41492188 8.61835937 -7.43359375 9.35546875 C-10 11 -10 11 -12 11 C-10.85849612 7.57548836 -9.95548398 6.91203482 -7.125 4.8125 C-6.42632813 4.28269531 -5.72765625 3.75289062 -5.0078125 3.20703125 C-3 2 -3 2 0 2 C0 1.34 0 0.68 0 0 Z " fill="#8A77CE" transform="translate(802,541)"/>
<path d="M0 0 C0 0.99 0 1.98 0 3 C-1.86328125 4.82421875 -1.86328125 4.82421875 -4.3125 6.6875 C-5.11300781 7.31011719 -5.91351562 7.93273437 -6.73828125 8.57421875 C-9 10 -9 10 -12 10 C-12 10.66 -12 11.32 -12 12 C-13.32 11.67 -14.64 11.34 -16 11 C-15.18015625 10.45730469 -14.3603125 9.91460938 -13.515625 9.35546875 C-12.43796875 8.64003906 -11.3603125 7.92460938 -10.25 7.1875 C-9.18265625 6.47980469 -8.1153125 5.77210938 -7.015625 5.04296875 C-4.6207009 3.42050074 -2.29166502 1.76324711 0 0 Z " fill="#8573CD" transform="translate(781,527)"/>
<path d="M0 0 C-6.27681511 5.35289139 -15.08002157 5.29886711 -23 5 C-23 4.67 -23 4.34 -23 4 C-21.55367187 3.69255859 -21.55367187 3.69255859 -20.078125 3.37890625 C-18.18320312 2.97478516 -18.18320312 2.97478516 -16.25 2.5625 C-14.99703125 2.29566406 -13.7440625 2.02882813 -12.453125 1.75390625 C-10.53477771 1.33508156 -8.6189767 0.90082955 -6.71875 0.40625 C-4.45801736 -0.12810499 -2.31305736 -0.06425159 0 0 Z " fill="#1B153A" transform="translate(733,512)"/>
<path d="M0 0 C0.99 0.33 1.98 0.66 3 1 C-1.29 5.29 -5.58 9.58 -10 14 C-10.66 13.67 -11.32 13.34 -12 13 C-9.30429795 9.40573059 -6.50321636 6.78460788 -3 4 C-1.23676495 1.87396815 -1.23676495 1.87396815 0 0 Z " fill="#6E65D6" transform="translate(585,374)"/>
<path d="M0 0 C0.66 0.33 1.32 0.66 2 1 C1.50628906 1.43570312 1.01257813 1.87140625 0.50390625 2.3203125 C-3.73531982 6.21395104 -3.73531982 6.21395104 -5.9375 11.4375 C-5.958125 12.283125 -5.97875 13.12875 -6 14 C-6.66 13.67 -7.32 13.34 -8 13 C-8 11.02 -8 9.04 -8 7 C-7.34 7 -6.68 7 -6 7 C-5.34 5.68 -4.68 4.36 -4 3 C-3.34 3 -2.68 3 -2 3 C-2 2.34 -2 1.68 -2 1 C-1.34 0.67 -0.68 0.34 0 0 Z " fill="#7366D0" transform="translate(609,290)"/>
<path d="M0 0 C-2.49063665 1.66042444 -4.25176398 2.55324168 -7.01171875 3.5078125 C-8.14770508 3.90419922 -8.14770508 3.90419922 -9.30664062 4.30859375 C-10.48516602 4.71271484 -10.48516602 4.71271484 -11.6875 5.125 C-12.48478516 5.40214844 -13.28207031 5.67929688 -14.10351562 5.96484375 C-16.06769952 6.6470154 -18.03367973 7.32401098 -20 8 C-20 7.34 -20 6.68 -20 6 C-13.60599652 2.57879294 -7.44734579 -0.45135429 0 0 Z " fill="#0C0825" transform="translate(673,163)"/>
<path d="M0 0 C0.99 0.33 1.98 0.66 3 1 C-0.515625 5.6875 -0.515625 5.6875 -2 7 C-3.32 7 -4.64 7 -6 7 C-6 6.34 -6 5.68 -6 5 C-6.66 5 -7.32 5 -8 5 C-7.67 4.01 -7.34 3.02 -7 2 C-5.68 2.66 -4.36 3.32 -3 4 C-2.01 2.68 -1.02 1.36 0 0 Z " fill="#685CCC" transform="translate(581,288)"/>
<path d="M0 0 C0.33 0.99 0.66 1.98 1 3 C1.66 3.66 2.32 4.32 3 5 C0.36 6.98 -2.28 8.96 -5 11 C-5.66 10.67 -6.32 10.34 -7 10 C-3.535 5.05 -3.535 5.05 0 0 Z M-1 4 C0 6 0 6 0 6 Z " fill="#130E36" transform="translate(750,542)"/>
<path d="M0 0 C0.66 0.33 1.32 0.66 2 1 C1.3503125 1.59167969 0.700625 2.18335938 0.03125 2.79296875 C-0.8040625 3.58316406 -1.639375 4.37335938 -2.5 5.1875 C-3.3353125 5.96480469 -4.170625 6.74210937 -5.03125 7.54296875 C-7.24092543 9.84399091 -7.24092543 9.84399091 -7.28125 12.80078125 C-7.1884375 13.52652344 -7.095625 14.25226563 -7 15 C-7.66 14.67 -8.32 14.34 -9 14 C-8.67 11.69 -8.34 9.38 -8 7 C-7.34 7 -6.68 7 -6 7 C-5.67 6.01 -5.34 5.02 -5 4 C-3.37667033 2.61423077 -1.71275535 1.27358732 0 0 Z " fill="#AB91E4" transform="translate(821,305)"/>
<path d="M0 0 C0.66 0.33 1.32 0.66 2 1 C0.04761147 3.00612399 -1.91137822 5.00492433 -3.875 7 C-4.43058594 7.57234375 -4.98617187 8.1446875 -5.55859375 8.734375 C-7.00134404 10.19450782 -8.4974374 11.60149298 -10 13 C-10.66 13 -11.32 13 -12 13 C-12 12.34 -12 11.68 -12 11 C-10.64453125 9.66796875 -10.64453125 9.66796875 -8.8125 8.1875 C-5.6877219 5.60257178 -2.82336603 2.90892257 0 0 Z " fill="#A991D9" transform="translate(857,270)"/>
<path d="M0 0 C-1.33333333 0.66666667 -2.66666667 1.33333333 -4 2 C-5.423125 2.804375 -5.423125 2.804375 -6.875 3.625 C-10.20782325 5.09144223 -12.40421401 5.25684186 -16 5 C-13.63746991 2.63746991 -11.68772729 1.962152 -8.5625 0.8125 C-7.59441406 0.44769531 -6.62632812 0.08289063 -5.62890625 -0.29296875 C-3 -1 -3 -1 0 0 Z " fill="#675DBF" transform="translate(572,204)"/>
<path d="M0 0 C0.66 0 1.32 0 2 0 C0.61219205 3.89006773 -1.2152227 6.96558708 -3.625 10.3125 C-4.25664063 11.19550781 -4.88828125 12.07851563 -5.5390625 12.98828125 C-6.02117188 13.65214844 -6.50328125 14.31601562 -7 15 C-7.33 14.01 -7.66 13.02 -8 12 C-7.0390625 10.28125 -7.0390625 10.28125 -5.625 8.5 C-3.82427389 6.2063377 -2.94399506 4.83198518 -2 2 C-1.34 2 -0.68 2 0 2 C0 1.34 0 0.68 0 0 Z " fill="#6E65CB" transform="translate(653,439)"/>
<path d="M0 0 C4.34156921 0.50095029 6.89846077 3.10523005 10 6 C10.33 6.99 10.66 7.98 11 9 C8 9 8 9 5.95703125 7.28515625 C5.24933594 6.55167969 4.54164063 5.81820313 3.8125 5.0625 C3.09707031 4.33160156 2.38164063 3.60070312 1.64453125 2.84765625 C0 1 0 1 0 0 Z " fill="#5A51BB" transform="translate(524,277)"/>
<path d="M0 0 C0.66 0 1.32 0 2 0 C0.53967505 5.31027254 -1.98320986 9.46330032 -5 14 C-5.83583327 11.62392051 -6.1842383 10.45550373 -5.22265625 8.078125 C-3.61132812 5.5390625 -3.61132812 5.5390625 -2 3 C-1.34 3 -0.68 3 0 3 C0 2.01 0 1.02 0 0 Z " fill="#9683D6" transform="translate(801,457)"/>
<path d="M0 0 C2.06271639 0.3110685 4.12516466 0.62391516 6.1875 0.9375 C7.33605469 1.11152344 8.48460937 1.28554688 9.66796875 1.46484375 C12.46325212 1.91379313 15.22933586 2.42082162 18 3 C18 3.33 18 3.66 18 4 C4.30829528 4.23927251 4.30829528 4.23927251 1.37109375 1.45703125 C0.91863281 0.97621094 0.46617187 0.49539063 0 0 Z " fill="#0B0833" transform="translate(602,457)"/>
<path d="M0 0 C0.66 0 1.32 0 2 0 C2 1.98 2 3.96 2 6 C1.34 6 0.68 6 0 6 C-0.99 7.98 -1.98 9.96 -3 12 C-3.66 12 -4.32 12 -5 12 C-3.68938409 7.76570244 -2.05643741 3.92592596 0 0 Z " fill="#14113E" transform="translate(586,320)"/>
<path d="M0 0 C-2.60014527 1.03227862 -5.20426369 2.05105152 -7.8125 3.0625 C-8.55048828 3.35705078 -9.28847656 3.65160156 -10.04882812 3.95507812 C-15.66015625 6.11328125 -15.66015625 6.11328125 -19 5 C-17.44148245 4.17988688 -15.87798284 3.36923787 -14.3125 2.5625 C-13.44238281 2.11003906 -12.57226562 1.65757812 -11.67578125 1.19140625 C-7.38853656 -0.71751292 -4.50232725 -1.25979552 0 0 Z " fill="#0C0928" transform="translate(634,179)"/>
<path d="M0 0 C5.42039575 -0.40652968 9.07015675 0.96006486 14 3 C14 3.33 14 3.66 14 4 C12.41590006 3.88512252 10.83271037 3.75765492 9.25 3.625 C8.36828125 3.55539062 7.4865625 3.48578125 6.578125 3.4140625 C4.00933618 3.00149945 2.24158985 2.28839043 0 1 C0 0.67 0 0.34 0 0 Z " fill="#6C62C6" transform="translate(646,511)"/>
<path d="M0 0 C3.62613199 0.56959153 5.25517741 1.92374534 7.75 4.5625 C8.36359375 5.20316406 8.9771875 5.84382813 9.609375 6.50390625 C10.06828125 6.99761719 10.5271875 7.49132812 11 8 C10.01 8.33 9.02 8.66 8 9 C6.99403703 8.0479279 5.99538437 7.08812654 5 6.125 C4.443125 5.59132813 3.88625 5.05765625 3.3125 4.5078125 C2 3 2 3 2 1 C1.34 0.67 0.68 0.34 0 0 Z " fill="#534CBC" transform="translate(537,479)"/>
<path d="M0 0 C1.81618856 1.11903546 3.62785526 2.24541284 5.4375 3.375 C6.44683594 4.00148438 7.45617187 4.62796875 8.49609375 5.2734375 C11 7 11 7 12 9 C10.68 9 9.36 9 8 9 C8 8.34 8 7.68 8 7 C7.236875 6.71125 6.47375 6.4225 5.6875 6.125 C3 5 3 5 0 3 C0 2.01 0 1.02 0 0 Z " fill="#645CCC" transform="translate(615,470)"/>
<path d="M0 0 C9.41002278 0.96355353 9.41002278 0.96355353 14 2 C13.67 2.66 13.34 3.32 13 4 C8.65535464 3.39174965 4.32448133 2.73832608 0 2 C0 1.34 0 0.68 0 0 Z " fill="#625CC3" transform="translate(606,439)"/>
<path d="M0 0 C0.33 0 0.66 0 1 0 C1.34833144 4.87664009 0.41685712 7.77050005 -2 12 C-2.66 12 -3.32 12 -4 12 C-3.52494322 10.18641846 -3.04483958 8.37415821 -2.5625 6.5625 C-2.29566406 5.55316406 -2.02882813 4.54382813 -1.75390625 3.50390625 C-1 1 -1 1 0 0 Z " fill="#5B53BF" transform="translate(546,375)"/>
<path d="M0 0 C6.26079448 -0.43177893 9.09075703 0.07260562 14 4 C13.34 4.66 12.68 5.32 12 6 C11.278125 5.319375 10.55625 4.63875 9.8125 3.9375 C7.19807181 1.70566072 7.19807181 1.70566072 4.3125 2.1875 C2.01377919 2.94084453 2.01377919 2.94084453 0 4 C0 2.68 0 1.36 0 0 Z " fill="#7C6CC7" transform="translate(683,347)"/>
<path d="M0 0 C0.66 0.66 1.32 1.32 2 2 C1.07038578 3.15224028 0.1309875 4.29659176 -0.8125 5.4375 C-1.59560547 6.39462891 -1.59560547 6.39462891 -2.39453125 7.37109375 C-4 9 -4 9 -7 10 C-7 9.01 -7 8.02 -7 7 C-6.34 7 -5.68 7 -5 7 C-4.731875 6.401875 -4.46375 5.80375 -4.1875 5.1875 C-3.01506533 3.02775192 -1.80630718 1.64209744 0 0 Z " fill="#564FCD" transform="translate(530,449)"/>
<path d="M0 0 C1.37095624 3.69037278 0.60010967 5.70883835 -0.9375 9.25 C-1.31777344 10.14203125 -1.69804688 11.0340625 -2.08984375 11.953125 C-2.39019531 12.62859375 -2.69054687 13.3040625 -3 14 C-3.66 14 -4.32 14 -5 14 C-3.45730076 9.27934033 -1.92205381 4.58335908 0 0 Z " fill="#18122C" transform="translate(819,426)"/>
<path d="M0 0 C-4.95 1.98 -9.9 3.96 -15 6 C-15.33 5.34 -15.66 4.68 -16 4 C-13.21769572 2.14513048 -11.15636393 1.27537888 -8 0.3125 C-6.700625 -0.09548828 -6.700625 -0.09548828 -5.375 -0.51171875 C-3 -1 -3 -1 0 0 Z " fill="#0D0A29" transform="translate(641,247)"/>
<path d="M0 0 C0.66 0.33 1.32 0.66 2 1 C-0.31 4.3 -2.62 7.6 -5 11 C-5.33 9.68 -5.66 8.36 -6 7 C-5.34 7 -4.68 7 -4 7 C-3.896875 6.360625 -3.79375 5.72125 -3.6875 5.0625 C-3.460625 4.381875 -3.23375 3.70125 -3 3 C-2.01 2.67 -1.02 2.34 0 2 C0 1.34 0 0.68 0 0 Z " fill="#0E0D2D" transform="translate(643,422)"/>
<path d="M0 0 C0.99 0.33 1.98 0.66 3 1 C2.04578192 2.14926266 1.08647955 3.29430541 0.125 4.4375 C-0.40867187 5.07558594 -0.94234375 5.71367187 -1.4921875 6.37109375 C-3 8 -3 8 -5 9 C-4.42647107 5.12867972 -2.51295648 2.91827204 0 0 Z " fill="#8874BF" transform="translate(845,503)"/>
<path d="M0 0 C0.66 0.66 1.32 1.32 2 2 C1.57469657 5.82773086 0.26430036 9.3756723 -1 13 C-1.33 13 -1.66 13 -2 13 C-1.48041715 8.62065881 -0.94324258 4.31196609 0 0 Z " fill="#9C83D4" transform="translate(859,435)"/>
<path d="M0 0 C3.20493136 2.49272439 6.27913203 4.97681337 9 8 C9 8.66 9 9.32 9 10 C5.17647894 8.4422692 2.70794407 6.08404742 0 3 C0 2.01 0 1.02 0 0 Z " fill="#A18BD2" transform="translate(791,285)"/>
<path d="M0 0 C4.2742558 1.5830577 6.26531794 4.50568404 9 8 C4.75153925 7.52794881 2.73180712 5.11122478 0 2 C0 1.34 0 0.68 0 0 Z " fill="#967FC8" transform="translate(782,276)"/>
<path d="M0 0 C3.3 0.33 6.6 0.66 10 1 C9.67 1.66 9.34 2.32 9 3 C6.4375 3.625 6.4375 3.625 4 4 C4 3.34 4 2.68 4 2 C2.68 2 1.36 2 0 2 C0 1.34 0 0.68 0 0 Z " fill="#0D0925" transform="translate(701,263)"/>
<path d="M0 0 C0 3 0 3 -1.53125 4.82421875 C-2.1809375 5.43910156 -2.830625 6.05398437 -3.5 6.6875 C-4.1496875 7.31011719 -4.799375 7.93273437 -5.46875 8.57421875 C-5.9740625 9.04472656 -6.479375 9.51523437 -7 10 C-7.33 9.01 -7.66 8.02 -8 7 C-5.36 4.69 -2.72 2.38 0 0 Z " fill="#AA91D8" transform="translate(846,248)"/>
<path d="M0 0 C-3.36423277 2.96052484 -6.69159287 3.92289822 -11 5 C-11.66 4.34 -12.32 3.68 -13 3 C-11.21189234 2.30329584 -9.41937948 1.61788811 -7.625 0.9375 C-6.62726562 0.55464844 -5.62953125 0.17179688 -4.6015625 -0.22265625 C-2 -1 -2 -1 0 0 Z " fill="#6058B9" transform="translate(550,212)"/>
<path d="M0 0 C0.33 0.99 0.66 1.98 1 3 C-0.43359375 5.26171875 -0.43359375 5.26171875 -2.4375 7.6875 C-3.09621094 8.49574219 -3.75492188 9.30398438 -4.43359375 10.13671875 C-4.95050781 10.75160156 -5.46742188 11.36648438 -6 12 C-6.66 11.67 -7.32 11.34 -8 11 C-5.36 7.37 -2.72 3.74 0 0 Z " fill="#7569C6" transform="translate(716,547)"/>
<path d="M0 0 C0.66 0.99 1.32 1.98 2 3 C0.68 5.64 -0.64 8.28 -2 11 C-2.99 11 -3.98 11 -5 11 C-3.35 7.37 -1.7 3.74 0 0 Z " fill="#927DD0" transform="translate(795,424)"/>
<path d="M0 0 C0.66 0 1.32 0 2 0 C1.835 1.03125 1.67 2.0625 1.5 3.125 C1.06678152 6.48244326 0.91764297 9.62336157 1 13 C0.34 12.67 -0.32 12.34 -1 12 C-1.02687279 10.18757948 -1.04633715 8.37504767 -1.0625 6.5625 C-1.07410156 5.55316406 -1.08570313 4.54382813 -1.09765625 3.50390625 C-1 1 -1 1 0 0 Z " fill="#645CCB" transform="translate(572,388)"/>
<path d="M0 0 C-1.23944276 0.86941494 -2.49207059 1.72005457 -3.75 2.5625 C-4.44609375 3.03816406 -5.1421875 3.51382812 -5.859375 4.00390625 C-8 5 -8 5 -10.265625 4.65234375 C-10.83796875 4.43707031 -11.4103125 4.22179687 -12 4 C-10.56988027 3.13353333 -9.13059381 2.28218171 -7.6875 1.4375 C-6.48673828 0.72400391 -6.48673828 0.72400391 -5.26171875 -0.00390625 C-3 -1 -3 -1 0 0 Z " fill="#917FD9" transform="translate(701,272)"/>
<path d="M0 0 C4.43458973 1.3937282 6.87378374 3.60582235 10 7 C6.433255 7 5.89456323 6.36308045 3.3125 4.0625 C2.68988281 3.51722656 2.06726563 2.97195313 1.42578125 2.41015625 C0.95527344 1.94480469 0.48476563 1.47945313 0 1 C0 0.67 0 0.34 0 0 Z " fill="#5E56C2" transform="translate(592,480)"/>
<path d="M0 0 C4 4.75 4 4.75 4 7 C-1.75 5.25 -1.75 5.25 -4 3 C-2.68 3 -1.36 3 0 3 C0 2.01 0 1.02 0 0 Z " fill="#151344" transform="translate(636,478)"/>
<path d="M0 0 C0.33 0 0.66 0 1 0 C1.21192221 5.19209404 0.5912689 9.126739 -1 14 C-1.33 14 -1.66 14 -2 14 C-2.1799928 8.78020872 -1.97094808 4.92737019 0 0 Z " fill="#A88FDC" transform="translate(883,436)"/>
<path d="M0 0 C-1.45537568 0.83848804 -2.91440373 1.67063934 -4.375 2.5 C-5.59316406 3.19609375 -5.59316406 3.19609375 -6.8359375 3.90625 C-9 5 -9 5 -11 5 C-11 4.34 -11 3.68 -11 3 C-4.03571429 -1.41964286 -4.03571429 -1.41964286 0 0 Z " fill="#7567C8" transform="translate(634,276)"/>
<path d="M0 0 C-1.6232687 0.6708712 -3.24867578 1.33657029 -4.875 2 C-6.23238281 2.556875 -6.23238281 2.556875 -7.6171875 3.125 C-10 4 -10 4 -12 4 C-12 3.34 -12 2.68 -12 2 C-10.75579353 1.4654744 -9.50429064 0.94791389 -8.25 0.4375 C-7.55390625 0.14746094 -6.8578125 -0.14257812 -6.140625 -0.44140625 C-3.69987216 -1.07831803 -2.3596345 -0.80248831 0 0 Z " fill="#7F70CE" transform="translate(642,203)"/>
<path d="M0 0 C0.33 0.99 0.66 1.98 1 3 C-1.3125 5.5 -1.3125 5.5 -4 8 C-4.99 8 -5.98 8 -7 8 C-4.69 5.36 -2.38 2.72 0 0 Z " fill="#7163C9" transform="translate(696,574)"/>
<path d="M0 0 C0.66 0.33 1.32 0.66 2 1 C0.74057614 2.19959375 -0.53295286 3.38439443 -1.8125 4.5625 C-2.87404297 5.55443359 -2.87404297 5.55443359 -3.95703125 6.56640625 C-4.63121094 7.03949219 -5.30539062 7.51257813 -6 8 C-6.99 7.67 -7.98 7.34 -9 7 C-6.03 4.69 -3.06 2.38 0 0 Z " fill="#110C26" transform="translate(810,537)"/>
<path d="M0 0 C0.66 0.33 1.32 0.66 2 1 C0.88671875 2.55078125 0.88671875 2.55078125 -1 4 C-3.91796875 3.85546875 -3.91796875 3.85546875 -7.1875 3.1875 C-8.27417969 2.97480469 -9.36085938 2.76210938 -10.48046875 2.54296875 C-11.72763672 2.27419922 -11.72763672 2.27419922 -13 2 C-13 1.67 -13 1.34 -13 1 C-11.71802734 1.01740234 -11.71802734 1.01740234 -10.41015625 1.03515625 C-8.75306641 1.04869141 -8.75306641 1.04869141 -7.0625 1.0625 C-5.40927734 1.07990234 -5.40927734 1.07990234 -3.72265625 1.09765625 C-1.08552366 1.31262571 -1.08552366 1.31262571 0 0 Z " fill="#7068D2" transform="translate(632,441)"/>
<path d="M0 0 C3.34726719 1.11575573 3.62079748 1.51344622 5.25 4.4375 C5.8275 5.613125 6.405 6.78875 7 8 C6.67 8.66 6.34 9.32 6 10 C4.99421411 8.71283353 3.99553202 7.42011342 3 6.125 C2.443125 5.40570313 1.88625 4.68640625 1.3125 3.9453125 C0 2 0 2 0 0 Z " fill="#8573CD" transform="translate(714,429)"/>
<path d="M0 0 C0.33 0 0.66 0 1 0 C1.36552803 1.41377782 1.71695495 2.83120576 2.0625 4.25 C2.25972656 5.03890625 2.45695313 5.8278125 2.66015625 6.640625 C3.01497267 9.10394822 2.76877544 10.65604132 2 13 C-0.20914 9.68629 -0.22481553 8.6553979 -0.125 4.8125 C-0.10695313 3.91144531 -0.08890625 3.01039063 -0.0703125 2.08203125 C-0.04710937 1.39496094 -0.02390625 0.70789063 0 0 Z " fill="#5851B7" transform="translate(573,400)"/>
<path d="M0 0 C0.33 0.99 0.66 1.98 1 3 C-1.97 5.475 -1.97 5.475 -5 8 C-5.66 7.67 -6.32 7.34 -7 7 C-4.69 4.69 -2.38 2.38 0 0 Z " fill="#0E0C2F" transform="translate(587,375)"/>
<path d="M0 0 C0.99 0.33 1.98 0.66 3 1 C1.71283353 2.00578589 0.42011342 3.00446798 -0.875 4 C-1.95394531 4.8353125 -1.95394531 4.8353125 -3.0546875 5.6875 C-5 7 -5 7 -7 7 C-5.65117186 2.95351557 -3.65173931 2.04497401 0 0 Z " fill="#8B7BD1" transform="translate(787,552)"/>
<path d="M0 0 C0 0.66 0 1.32 0 2 C-1.53125 3.2890625 -1.53125 3.2890625 -3.5 4.625 C-4.1496875 5.07101562 -4.799375 5.51703125 -5.46875 5.9765625 C-5.9740625 6.31429687 -6.479375 6.65203125 -7 7 C-7.66 6.67 -8.32 6.34 -9 6 C-7.8803014 4.99406757 -6.7540588 3.9954151 -5.625 3 C-4.68527344 2.1646875 -4.68527344 2.1646875 -3.7265625 1.3125 C-2 0 -2 0 0 0 Z " fill="#917DD3" transform="translate(817,531)"/>
<path d="M0 0 C0.66 0.33 1.32 0.66 2 1 C1.04956626 2.33897583 0.08940853 3.67105427 -0.875 5 C-1.40867187 5.7425 -1.94234375 6.485 -2.4921875 7.25 C-3.23855469 8.11625 -3.23855469 8.11625 -4 9 C-4.66 9 -5.32 9 -6 9 C-4.47291037 5.56404834 -2.40072955 2.88087546 0 0 Z " fill="#9A85D3" transform="translate(861,486)"/>
<path d="M0 0 C2.32472205 2.85306797 3.7508258 5.54074837 5 9 C4.01 9 3.02 9 2 9 C0.14223235 5.86501708 -0.20140476 3.62528568 0 0 Z " fill="#6E61D0" transform="translate(659,483)"/>
<path d="M0 0 C1.27875 -0.061875 2.5575 -0.12375 3.875 -0.1875 C4.95394531 -0.23970703 4.95394531 -0.23970703 6.0546875 -0.29296875 C6.69664062 -0.19628906 7.33859375 -0.09960938 8 0 C8.66 0.99 9.32 1.98 10 3 C2.25 2.25 2.25 2.25 0 0 Z " fill="#665EC4" transform="translate(609,457)"/>
<path d="M0 0 C0.66 0 1.32 0 2 0 C0.68775452 3.93673644 -0.91910327 6.22719294 -4 9 C-3.35494404 5.51669784 -2.01782732 2.90567134 0 0 Z " fill="#6F64CA" transform="translate(665,422)"/>
<path d="M0 0 C0.66 0.33 1.32 0.66 2 1 C2.1875 3.8125 2.1875 3.8125 2 7 C1.01 7.99 0.02 8.98 -1 10 C-0.67 6.7 -0.34 3.4 0 0 Z " fill="#1C1630" transform="translate(827,390)"/>
<path d="M0 0 C0.66 0 1.32 0 2 0 C0.50163895 3.11198065 -1.19933758 6.0534615 -3 9 C-3.33 8.34 -3.66 7.68 -4 7 C-1.55555556 1.55555556 -1.55555556 1.55555556 0 0 Z " fill="#16112D" transform="translate(738,372)"/>
<path d="M0 0 C0.33 0 0.66 0 1 0 C1.33 3.63 1.66 7.26 2 11 C0.68 9.68 -0.64 8.36 -2 7 C-1.34 6.67 -0.68 6.34 0 6 C0 4.02 0 2.04 0 0 Z " fill="#342755" transform="translate(802,354)"/>
<path d="M0 0 C0.66 0.66 1.32 1.32 2 2 C-1.465 4.97 -1.465 4.97 -5 8 C-3.95206337 3.80825346 -3.08236365 2.78407039 0 0 Z " fill="#6B61D0" transform="translate(587,349)"/>
<path d="M0 0 C2.83833554 1.13533421 4.80962228 2.29083424 7.125 4.25 C5.6858866 3.96640113 4.24874482 3.67278601 2.8125 3.375 C2.01199219 3.21257812 1.21148438 3.05015625 0.38671875 2.8828125 C-1.875 2.25 -1.875 2.25 -4.875 0.25 C-2.875 -0.75 -2.875 -0.75 0 0 Z " fill="#1D1637" transform="translate(737.875,272.75)"/>
<path d="M0 0 C1.27875 -0.061875 2.5575 -0.12375 3.875 -0.1875 C4.95394531 -0.23970703 4.95394531 -0.23970703 6.0546875 -0.29296875 C6.69664062 -0.19628906 7.33859375 -0.09960938 8 0 C8.66 0.99 9.32 1.98 10 3 C2.25 2.25 2.25 2.25 0 0 Z " fill="#140F2A" transform="translate(709,239)"/>
<path d="M0 0 C0 3.26795703 -0.57850516 5.0821948 -2 8 C-2.99 8.66 -3.98 9.32 -5 10 C-3.84414715 6.08788267 -2.64465038 3.1254959 0 0 Z " fill="#A08AD5" transform="translate(856,450)"/>
<path d="M0 0 C0.66 0.33 1.32 0.66 2 1 C-2.39453125 5.00390625 -2.39453125 5.00390625 -4 6 C-4.99 5.67 -5.98 5.34 -7 5 C-4.69 3.35 -2.38 1.7 0 0 Z " fill="#7F71CF" transform="translate(661,343)"/>
<path d="M0 0 C0.66 0 1.32 0 2 0 C0.50902342 3.7952131 -1.75700849 5.61042731 -5 8 C-5 7.01 -5 6.02 -5 5 C-4.34 5 -3.68 5 -3 5 C-3 4.34 -3 3.68 -3 3 C-2.34 3 -1.68 3 -1 3 C-0.67 2.01 -0.34 1.02 0 0 Z " fill="#937CC3" transform="translate(832,294)"/>
<path d="M0 0 C3.02419525 0.58803797 6.01758453 1.22678118 9 2 C9 2.66 9 3.32 9 4 C4.545 3.01 4.545 3.01 0 2 C0 1.34 0 0.68 0 0 Z " fill="#9A85CD" transform="translate(795,225)"/>
<path d="M0 0 C0 3 0 3 -2 5.1875 C-2.66 5.785625 -3.32 6.38375 -4 7 C-4.99 6.67 -5.98 6.34 -7 6 C-4.69 4.02 -2.38 2.04 0 0 Z " fill="#0F0A23" transform="translate(819,530)"/>
<path d="M0 0 C2 4 2 4 1.125 7.75 C0.75375 8.8225 0.3825 9.895 0 11 C-0.66 10.67 -1.32 10.34 -2 10 C-1.34 6.7 -0.68 3.4 0 0 Z " fill="#131136" transform="translate(577,340)"/>
<path d="M0 0 C1.98 1.65 3.96 3.3 6 5 C3 5 3 5 1 4 C0.67 4.99 0.34 5.98 0 7 C0 4.69 0 2.38 0 0 Z " fill="#05042B" transform="translate(517,271)"/>
<path d="M0 0 C2.97 0.99 5.94 1.98 9 3 C9 3.33 9 3.66 9 4 C6.69 4 4.38 4 2 4 C2 3.34 2 2.68 2 2 C1.01 1.67 0.02 1.34 -1 1 C-0.67 0.67 -0.34 0.34 0 0 Z " fill="#0F0B23" transform="translate(740,205)"/>
</svg>
